%TF.GenerationSoftware,KiCad,Pcbnew,(5.1.8-0-10_14)*%
%TF.CreationDate,2021-03-11T09:36:11+11:00*%
%TF.ProjectId,Sensor,53656e73-6f72-42e6-9b69-6361645f7063,rev?*%
%TF.SameCoordinates,Original*%
%TF.FileFunction,Paste,Bot*%
%TF.FilePolarity,Positive*%
%FSLAX46Y46*%
G04 Gerber Fmt 4.6, Leading zero omitted, Abs format (unit mm)*
G04 Created by KiCad (PCBNEW (5.1.8-0-10_14)) date 2021-03-11 09:36:11*
%MOMM*%
%LPD*%
G01*
G04 APERTURE LIST*
%ADD10R,0.590000X1.210000*%
G04 APERTURE END LIST*
D10*
%TO.C,U1*%
X211950000Y-90345000D03*
X210050000Y-90345000D03*
X210050000Y-92855000D03*
X211000000Y-92855000D03*
X211950000Y-92855000D03*
%TD*%
%TO.C,R3*%
G36*
G01*
X215050001Y-91400000D02*
X214149999Y-91400000D01*
G75*
G02*
X213900000Y-91150001I0J249999D01*
G01*
X213900000Y-90449999D01*
G75*
G02*
X214149999Y-90200000I249999J0D01*
G01*
X215050001Y-90200000D01*
G75*
G02*
X215300000Y-90449999I0J-249999D01*
G01*
X215300000Y-91150001D01*
G75*
G02*
X215050001Y-91400000I-249999J0D01*
G01*
G37*
G36*
G01*
X215050001Y-93400000D02*
X214149999Y-93400000D01*
G75*
G02*
X213900000Y-93150001I0J249999D01*
G01*
X213900000Y-92449999D01*
G75*
G02*
X214149999Y-92200000I249999J0D01*
G01*
X215050001Y-92200000D01*
G75*
G02*
X215300000Y-92449999I0J-249999D01*
G01*
X215300000Y-93150001D01*
G75*
G02*
X215050001Y-93400000I-249999J0D01*
G01*
G37*
%TD*%
%TO.C,R2*%
G36*
G01*
X211400000Y-96050001D02*
X211400000Y-95149999D01*
G75*
G02*
X211649999Y-94900000I249999J0D01*
G01*
X212350001Y-94900000D01*
G75*
G02*
X212600000Y-95149999I0J-249999D01*
G01*
X212600000Y-96050001D01*
G75*
G02*
X212350001Y-96300000I-249999J0D01*
G01*
X211649999Y-96300000D01*
G75*
G02*
X211400000Y-96050001I0J249999D01*
G01*
G37*
G36*
G01*
X209400000Y-96050001D02*
X209400000Y-95149999D01*
G75*
G02*
X209649999Y-94900000I249999J0D01*
G01*
X210350001Y-94900000D01*
G75*
G02*
X210600000Y-95149999I0J-249999D01*
G01*
X210600000Y-96050001D01*
G75*
G02*
X210350001Y-96300000I-249999J0D01*
G01*
X209649999Y-96300000D01*
G75*
G02*
X209400000Y-96050001I0J249999D01*
G01*
G37*
%TD*%
%TO.C,R1*%
G36*
G01*
X206800000Y-92549999D02*
X206800000Y-93450001D01*
G75*
G02*
X206550001Y-93700000I-249999J0D01*
G01*
X205849999Y-93700000D01*
G75*
G02*
X205600000Y-93450001I0J249999D01*
G01*
X205600000Y-92549999D01*
G75*
G02*
X205849999Y-92300000I249999J0D01*
G01*
X206550001Y-92300000D01*
G75*
G02*
X206800000Y-92549999I0J-249999D01*
G01*
G37*
G36*
G01*
X208800000Y-92549999D02*
X208800000Y-93450001D01*
G75*
G02*
X208550001Y-93700000I-249999J0D01*
G01*
X207849999Y-93700000D01*
G75*
G02*
X207600000Y-93450001I0J249999D01*
G01*
X207600000Y-92549999D01*
G75*
G02*
X207849999Y-92300000I249999J0D01*
G01*
X208550001Y-92300000D01*
G75*
G02*
X208800000Y-92549999I0J-249999D01*
G01*
G37*
%TD*%
%TO.C,C3*%
G36*
G01*
X207612500Y-90675000D02*
X207612500Y-89725000D01*
G75*
G02*
X207862500Y-89475000I250000J0D01*
G01*
X208537500Y-89475000D01*
G75*
G02*
X208787500Y-89725000I0J-250000D01*
G01*
X208787500Y-90675000D01*
G75*
G02*
X208537500Y-90925000I-250000J0D01*
G01*
X207862500Y-90925000D01*
G75*
G02*
X207612500Y-90675000I0J250000D01*
G01*
G37*
G36*
G01*
X205537500Y-90675000D02*
X205537500Y-89725000D01*
G75*
G02*
X205787500Y-89475000I250000J0D01*
G01*
X206462500Y-89475000D01*
G75*
G02*
X206712500Y-89725000I0J-250000D01*
G01*
X206712500Y-90675000D01*
G75*
G02*
X206462500Y-90925000I-250000J0D01*
G01*
X205787500Y-90925000D01*
G75*
G02*
X205537500Y-90675000I0J250000D01*
G01*
G37*
%TD*%
%TO.C,C2*%
G36*
G01*
X217675000Y-91350000D02*
X216725000Y-91350000D01*
G75*
G02*
X216475000Y-91100000I0J250000D01*
G01*
X216475000Y-90425000D01*
G75*
G02*
X216725000Y-90175000I250000J0D01*
G01*
X217675000Y-90175000D01*
G75*
G02*
X217925000Y-90425000I0J-250000D01*
G01*
X217925000Y-91100000D01*
G75*
G02*
X217675000Y-91350000I-250000J0D01*
G01*
G37*
G36*
G01*
X217675000Y-93425000D02*
X216725000Y-93425000D01*
G75*
G02*
X216475000Y-93175000I0J250000D01*
G01*
X216475000Y-92500000D01*
G75*
G02*
X216725000Y-92250000I250000J0D01*
G01*
X217675000Y-92250000D01*
G75*
G02*
X217925000Y-92500000I0J-250000D01*
G01*
X217925000Y-93175000D01*
G75*
G02*
X217675000Y-93425000I-250000J0D01*
G01*
G37*
%TD*%
%TO.C,C1*%
G36*
G01*
X206512500Y-95125000D02*
X206512500Y-96075000D01*
G75*
G02*
X206262500Y-96325000I-250000J0D01*
G01*
X205587500Y-96325000D01*
G75*
G02*
X205337500Y-96075000I0J250000D01*
G01*
X205337500Y-95125000D01*
G75*
G02*
X205587500Y-94875000I250000J0D01*
G01*
X206262500Y-94875000D01*
G75*
G02*
X206512500Y-95125000I0J-250000D01*
G01*
G37*
G36*
G01*
X208587500Y-95125000D02*
X208587500Y-96075000D01*
G75*
G02*
X208337500Y-96325000I-250000J0D01*
G01*
X207662500Y-96325000D01*
G75*
G02*
X207412500Y-96075000I0J250000D01*
G01*
X207412500Y-95125000D01*
G75*
G02*
X207662500Y-94875000I250000J0D01*
G01*
X208337500Y-94875000D01*
G75*
G02*
X208587500Y-95125000I0J-250000D01*
G01*
G37*
%TD*%
M02*
