%TF.GenerationSoftware,KiCad,Pcbnew,(5.1.8-0-10_14)*%
%TF.CreationDate,2021-03-11T09:36:11+11:00*%
%TF.ProjectId,Sensor,53656e73-6f72-42e6-9b69-6361645f7063,rev?*%
%TF.SameCoordinates,Original*%
%TF.FileFunction,Legend,Top*%
%TF.FilePolarity,Positive*%
%FSLAX46Y46*%
G04 Gerber Fmt 4.6, Leading zero omitted, Abs format (unit mm)*
G04 Created by KiCad (PCBNEW (5.1.8-0-10_14)) date 2021-03-11 09:36:11*
%MOMM*%
%LPD*%
G01*
G04 APERTURE LIST*
%ADD10C,0.300000*%
%ADD11C,0.010000*%
%ADD12C,0.127000*%
%ADD13C,0.200000*%
%ADD14C,0.015000*%
G04 APERTURE END LIST*
D10*
X198514285Y-72757142D02*
X198514285Y-69757142D01*
X199657142Y-69757142D01*
X199942857Y-69900000D01*
X200085714Y-70042857D01*
X200228571Y-70328571D01*
X200228571Y-70757142D01*
X200085714Y-71042857D01*
X199942857Y-71185714D01*
X199657142Y-71328571D01*
X198514285Y-71328571D01*
X201371428Y-71900000D02*
X202800000Y-71900000D01*
X201085714Y-72757142D02*
X202085714Y-69757142D01*
X203085714Y-72757142D01*
X205800000Y-72757142D02*
X204800000Y-71328571D01*
X204085714Y-72757142D02*
X204085714Y-69757142D01*
X205228571Y-69757142D01*
X205514285Y-69900000D01*
X205657142Y-70042857D01*
X205800000Y-70328571D01*
X205800000Y-70757142D01*
X205657142Y-71042857D01*
X205514285Y-71185714D01*
X205228571Y-71328571D01*
X204085714Y-71328571D01*
X209228571Y-72614285D02*
X209657142Y-72757142D01*
X210371428Y-72757142D01*
X210657142Y-72614285D01*
X210800000Y-72471428D01*
X210942857Y-72185714D01*
X210942857Y-71900000D01*
X210800000Y-71614285D01*
X210657142Y-71471428D01*
X210371428Y-71328571D01*
X209800000Y-71185714D01*
X209514285Y-71042857D01*
X209371428Y-70900000D01*
X209228571Y-70614285D01*
X209228571Y-70328571D01*
X209371428Y-70042857D01*
X209514285Y-69900000D01*
X209800000Y-69757142D01*
X210514285Y-69757142D01*
X210942857Y-69900000D01*
X213371428Y-72614285D02*
X213085714Y-72757142D01*
X212514285Y-72757142D01*
X212228571Y-72614285D01*
X212085714Y-72328571D01*
X212085714Y-71185714D01*
X212228571Y-70900000D01*
X212514285Y-70757142D01*
X213085714Y-70757142D01*
X213371428Y-70900000D01*
X213514285Y-71185714D01*
X213514285Y-71471428D01*
X212085714Y-71757142D01*
X214800000Y-70757142D02*
X214800000Y-72757142D01*
X214800000Y-71042857D02*
X214942857Y-70900000D01*
X215228571Y-70757142D01*
X215657142Y-70757142D01*
X215942857Y-70900000D01*
X216085714Y-71185714D01*
X216085714Y-72757142D01*
X217371428Y-72614285D02*
X217657142Y-72757142D01*
X218228571Y-72757142D01*
X218514285Y-72614285D01*
X218657142Y-72328571D01*
X218657142Y-72185714D01*
X218514285Y-71900000D01*
X218228571Y-71757142D01*
X217800000Y-71757142D01*
X217514285Y-71614285D01*
X217371428Y-71328571D01*
X217371428Y-71185714D01*
X217514285Y-70900000D01*
X217800000Y-70757142D01*
X218228571Y-70757142D01*
X218514285Y-70900000D01*
X220371428Y-72757142D02*
X220085714Y-72614285D01*
X219942857Y-72471428D01*
X219800000Y-72185714D01*
X219800000Y-71328571D01*
X219942857Y-71042857D01*
X220085714Y-70900000D01*
X220371428Y-70757142D01*
X220800000Y-70757142D01*
X221085714Y-70900000D01*
X221228571Y-71042857D01*
X221371428Y-71328571D01*
X221371428Y-72185714D01*
X221228571Y-72471428D01*
X221085714Y-72614285D01*
X220800000Y-72757142D01*
X220371428Y-72757142D01*
X222657142Y-72757142D02*
X222657142Y-70757142D01*
X222657142Y-71328571D02*
X222800000Y-71042857D01*
X222942857Y-70900000D01*
X223228571Y-70757142D01*
X223514285Y-70757142D01*
D11*
%TO.C,REF\u002A\u002A*%
G36*
X198746536Y-80200427D02*
G01*
X198859118Y-80797618D01*
X199274531Y-80968865D01*
X199689945Y-81140112D01*
X200188302Y-80801233D01*
X200327869Y-80706877D01*
X200454029Y-80622630D01*
X200560896Y-80552338D01*
X200642583Y-80499847D01*
X200693202Y-80469004D01*
X200706987Y-80462353D01*
X200731821Y-80479458D01*
X200784889Y-80526744D01*
X200860241Y-80598172D01*
X200951930Y-80687700D01*
X201054008Y-80789289D01*
X201160527Y-80896898D01*
X201265537Y-81004487D01*
X201363092Y-81106015D01*
X201447243Y-81195441D01*
X201512041Y-81266726D01*
X201551538Y-81313828D01*
X201560981Y-81329592D01*
X201547392Y-81358653D01*
X201509294Y-81422321D01*
X201450694Y-81514367D01*
X201375598Y-81628564D01*
X201288009Y-81758684D01*
X201237255Y-81832901D01*
X201144746Y-81968422D01*
X201062541Y-82090716D01*
X200994631Y-82193695D01*
X200945001Y-82271273D01*
X200917641Y-82317361D01*
X200913530Y-82327047D01*
X200922850Y-82354574D01*
X200948255Y-82418728D01*
X200985912Y-82510490D01*
X201031987Y-82620839D01*
X201082647Y-82740755D01*
X201134060Y-82861219D01*
X201182390Y-82973209D01*
X201223807Y-83067707D01*
X201254475Y-83135692D01*
X201270562Y-83168143D01*
X201271512Y-83169420D01*
X201296773Y-83175617D01*
X201364046Y-83189440D01*
X201466361Y-83209532D01*
X201596742Y-83234534D01*
X201748217Y-83263086D01*
X201836594Y-83279551D01*
X201998453Y-83310369D01*
X202144650Y-83339694D01*
X202267788Y-83365921D01*
X202360470Y-83387446D01*
X202415302Y-83402665D01*
X202426324Y-83407493D01*
X202437119Y-83440174D01*
X202445830Y-83513985D01*
X202452461Y-83620292D01*
X202457019Y-83750467D01*
X202459510Y-83895876D01*
X202459939Y-84047890D01*
X202458312Y-84197877D01*
X202454636Y-84337206D01*
X202448916Y-84457245D01*
X202441158Y-84549365D01*
X202431369Y-84604932D01*
X202425497Y-84616500D01*
X202390400Y-84630365D01*
X202316029Y-84650188D01*
X202212224Y-84673639D01*
X202088820Y-84698391D01*
X202045742Y-84706398D01*
X201838048Y-84744441D01*
X201673985Y-84775079D01*
X201548131Y-84799529D01*
X201455066Y-84819009D01*
X201389368Y-84834736D01*
X201345618Y-84847928D01*
X201318393Y-84859804D01*
X201302273Y-84871580D01*
X201300018Y-84873908D01*
X201277504Y-84911400D01*
X201243159Y-84984365D01*
X201200412Y-85083867D01*
X201152693Y-85200973D01*
X201103431Y-85326748D01*
X201056056Y-85452257D01*
X201013996Y-85568565D01*
X200980681Y-85666739D01*
X200959542Y-85737843D01*
X200954006Y-85772942D01*
X200954467Y-85774172D01*
X200973224Y-85802861D01*
X201015777Y-85865985D01*
X201077654Y-85956973D01*
X201154383Y-86069255D01*
X201241492Y-86196260D01*
X201266299Y-86232353D01*
X201354753Y-86363203D01*
X201432589Y-86482591D01*
X201495567Y-86583662D01*
X201539446Y-86659559D01*
X201559986Y-86703427D01*
X201560981Y-86708817D01*
X201543723Y-86737144D01*
X201496036Y-86793261D01*
X201424051Y-86871137D01*
X201333898Y-86964740D01*
X201231706Y-87068041D01*
X201123606Y-87175006D01*
X201015729Y-87279606D01*
X200914205Y-87375809D01*
X200825163Y-87457584D01*
X200754734Y-87518900D01*
X200709048Y-87553726D01*
X200696410Y-87559412D01*
X200666992Y-87546020D01*
X200606762Y-87509899D01*
X200525530Y-87457136D01*
X200463031Y-87414667D01*
X200349786Y-87336740D01*
X200215675Y-87244984D01*
X200081156Y-87153375D01*
X200008834Y-87104346D01*
X199764039Y-86938770D01*
X199558551Y-87049875D01*
X199464937Y-87098548D01*
X199385331Y-87136381D01*
X199331468Y-87157958D01*
X199317758Y-87160961D01*
X199301271Y-87138793D01*
X199268746Y-87076149D01*
X199222609Y-86978809D01*
X199165291Y-86852549D01*
X199099217Y-86703150D01*
X199026816Y-86536388D01*
X198950517Y-86358042D01*
X198872747Y-86173891D01*
X198795935Y-85989712D01*
X198722507Y-85811285D01*
X198654893Y-85644387D01*
X198595521Y-85494797D01*
X198546817Y-85368293D01*
X198511211Y-85270654D01*
X198491131Y-85207657D01*
X198487901Y-85186021D01*
X198513497Y-85158424D01*
X198569539Y-85113625D01*
X198644312Y-85060934D01*
X198650588Y-85056765D01*
X198843846Y-84902069D01*
X198999675Y-84721591D01*
X199116725Y-84521102D01*
X199193646Y-84306374D01*
X199229087Y-84083177D01*
X199221698Y-83857281D01*
X199170128Y-83634459D01*
X199073027Y-83420479D01*
X199044459Y-83373664D01*
X198895869Y-83184618D01*
X198720328Y-83032812D01*
X198523911Y-82919034D01*
X198312694Y-82844075D01*
X198092754Y-82808722D01*
X197870164Y-82813767D01*
X197651002Y-82859999D01*
X197441343Y-82948206D01*
X197247262Y-83079179D01*
X197187227Y-83132337D01*
X197034436Y-83298739D01*
X196923098Y-83473912D01*
X196846724Y-83670266D01*
X196804188Y-83864717D01*
X196793687Y-84083342D01*
X196828701Y-84303052D01*
X196905674Y-84516420D01*
X197021048Y-84716022D01*
X197171266Y-84894429D01*
X197352774Y-85044217D01*
X197376628Y-85060006D01*
X197452202Y-85111712D01*
X197509652Y-85156512D01*
X197537118Y-85185117D01*
X197537518Y-85186021D01*
X197531621Y-85216964D01*
X197508246Y-85287191D01*
X197469822Y-85390925D01*
X197418778Y-85522390D01*
X197357543Y-85675807D01*
X197288545Y-85845401D01*
X197214214Y-86025393D01*
X197136979Y-86210008D01*
X197059269Y-86393468D01*
X196983512Y-86569996D01*
X196912138Y-86733814D01*
X196847575Y-86879147D01*
X196792253Y-87000217D01*
X196748601Y-87091247D01*
X196719047Y-87146460D01*
X196707145Y-87160961D01*
X196670778Y-87149669D01*
X196602731Y-87119385D01*
X196514737Y-87075520D01*
X196466351Y-87049875D01*
X196260864Y-86938770D01*
X196016069Y-87104346D01*
X195891107Y-87189170D01*
X195754296Y-87282516D01*
X195626089Y-87370408D01*
X195561872Y-87414667D01*
X195471552Y-87475318D01*
X195395072Y-87523381D01*
X195342408Y-87552770D01*
X195325303Y-87558982D01*
X195300406Y-87542223D01*
X195245306Y-87495436D01*
X195165344Y-87423480D01*
X195065861Y-87331212D01*
X194952201Y-87223490D01*
X194880316Y-87154326D01*
X194754552Y-87030757D01*
X194645864Y-86920234D01*
X194558646Y-86827485D01*
X194497290Y-86757237D01*
X194466192Y-86714220D01*
X194463209Y-86705490D01*
X194477054Y-86672284D01*
X194515313Y-86605142D01*
X194573742Y-86510863D01*
X194648098Y-86396245D01*
X194734136Y-86268083D01*
X194758603Y-86232353D01*
X194847755Y-86102489D01*
X194927739Y-85985569D01*
X194994081Y-85888162D01*
X195042312Y-85816839D01*
X195067958Y-85778170D01*
X195070436Y-85774172D01*
X195066730Y-85743355D01*
X195047062Y-85675599D01*
X195014861Y-85579839D01*
X194973556Y-85465009D01*
X194926576Y-85340044D01*
X194877350Y-85213879D01*
X194829309Y-85095448D01*
X194785882Y-84993685D01*
X194750497Y-84917526D01*
X194726585Y-84875904D01*
X194724885Y-84873908D01*
X194710263Y-84862013D01*
X194685566Y-84850250D01*
X194645373Y-84837401D01*
X194584264Y-84822249D01*
X194496818Y-84803576D01*
X194377613Y-84780165D01*
X194221228Y-84750797D01*
X194022244Y-84714255D01*
X193979161Y-84706398D01*
X193851471Y-84681727D01*
X193740154Y-84657593D01*
X193655046Y-84636324D01*
X193605984Y-84620248D01*
X193599406Y-84616500D01*
X193588565Y-84583273D01*
X193579754Y-84509021D01*
X193572977Y-84402376D01*
X193568241Y-84271967D01*
X193565551Y-84126427D01*
X193564914Y-83974386D01*
X193566335Y-83824476D01*
X193569821Y-83685328D01*
X193575377Y-83565572D01*
X193583009Y-83473841D01*
X193592723Y-83418766D01*
X193598579Y-83407493D01*
X193631181Y-83396123D01*
X193705419Y-83377624D01*
X193813897Y-83353602D01*
X193949218Y-83325662D01*
X194103986Y-83295408D01*
X194188308Y-83279551D01*
X194348297Y-83249644D01*
X194490968Y-83222550D01*
X194609349Y-83199631D01*
X194696466Y-83182243D01*
X194745346Y-83171747D01*
X194753391Y-83169420D01*
X194766988Y-83143186D01*
X194795730Y-83079995D01*
X194835786Y-82988877D01*
X194883325Y-82878857D01*
X194934516Y-82758965D01*
X194985527Y-82638227D01*
X195032527Y-82525671D01*
X195071685Y-82430326D01*
X195099170Y-82361217D01*
X195111150Y-82327374D01*
X195111373Y-82325895D01*
X195097792Y-82299197D01*
X195059716Y-82237760D01*
X195001148Y-82147689D01*
X194926089Y-82035090D01*
X194838541Y-81906070D01*
X194787648Y-81831961D01*
X194694910Y-81696077D01*
X194612542Y-81572709D01*
X194544562Y-81468097D01*
X194494989Y-81388483D01*
X194467843Y-81340107D01*
X194463922Y-81329262D01*
X194480776Y-81304020D01*
X194527369Y-81250124D01*
X194597749Y-81173613D01*
X194685966Y-81080523D01*
X194786066Y-80976895D01*
X194892099Y-80868764D01*
X194998112Y-80762170D01*
X195098153Y-80663150D01*
X195186271Y-80577742D01*
X195256514Y-80511985D01*
X195302929Y-80471916D01*
X195318457Y-80462353D01*
X195343740Y-80475800D01*
X195404212Y-80513575D01*
X195493993Y-80571835D01*
X195607204Y-80646734D01*
X195737964Y-80734425D01*
X195836600Y-80801233D01*
X196334958Y-81140112D01*
X196750371Y-80968865D01*
X197165785Y-80797618D01*
X197278367Y-80200427D01*
X197390950Y-79603235D01*
X198633953Y-79603235D01*
X198746536Y-80200427D01*
G37*
X198746536Y-80200427D02*
X198859118Y-80797618D01*
X199274531Y-80968865D01*
X199689945Y-81140112D01*
X200188302Y-80801233D01*
X200327869Y-80706877D01*
X200454029Y-80622630D01*
X200560896Y-80552338D01*
X200642583Y-80499847D01*
X200693202Y-80469004D01*
X200706987Y-80462353D01*
X200731821Y-80479458D01*
X200784889Y-80526744D01*
X200860241Y-80598172D01*
X200951930Y-80687700D01*
X201054008Y-80789289D01*
X201160527Y-80896898D01*
X201265537Y-81004487D01*
X201363092Y-81106015D01*
X201447243Y-81195441D01*
X201512041Y-81266726D01*
X201551538Y-81313828D01*
X201560981Y-81329592D01*
X201547392Y-81358653D01*
X201509294Y-81422321D01*
X201450694Y-81514367D01*
X201375598Y-81628564D01*
X201288009Y-81758684D01*
X201237255Y-81832901D01*
X201144746Y-81968422D01*
X201062541Y-82090716D01*
X200994631Y-82193695D01*
X200945001Y-82271273D01*
X200917641Y-82317361D01*
X200913530Y-82327047D01*
X200922850Y-82354574D01*
X200948255Y-82418728D01*
X200985912Y-82510490D01*
X201031987Y-82620839D01*
X201082647Y-82740755D01*
X201134060Y-82861219D01*
X201182390Y-82973209D01*
X201223807Y-83067707D01*
X201254475Y-83135692D01*
X201270562Y-83168143D01*
X201271512Y-83169420D01*
X201296773Y-83175617D01*
X201364046Y-83189440D01*
X201466361Y-83209532D01*
X201596742Y-83234534D01*
X201748217Y-83263086D01*
X201836594Y-83279551D01*
X201998453Y-83310369D01*
X202144650Y-83339694D01*
X202267788Y-83365921D01*
X202360470Y-83387446D01*
X202415302Y-83402665D01*
X202426324Y-83407493D01*
X202437119Y-83440174D01*
X202445830Y-83513985D01*
X202452461Y-83620292D01*
X202457019Y-83750467D01*
X202459510Y-83895876D01*
X202459939Y-84047890D01*
X202458312Y-84197877D01*
X202454636Y-84337206D01*
X202448916Y-84457245D01*
X202441158Y-84549365D01*
X202431369Y-84604932D01*
X202425497Y-84616500D01*
X202390400Y-84630365D01*
X202316029Y-84650188D01*
X202212224Y-84673639D01*
X202088820Y-84698391D01*
X202045742Y-84706398D01*
X201838048Y-84744441D01*
X201673985Y-84775079D01*
X201548131Y-84799529D01*
X201455066Y-84819009D01*
X201389368Y-84834736D01*
X201345618Y-84847928D01*
X201318393Y-84859804D01*
X201302273Y-84871580D01*
X201300018Y-84873908D01*
X201277504Y-84911400D01*
X201243159Y-84984365D01*
X201200412Y-85083867D01*
X201152693Y-85200973D01*
X201103431Y-85326748D01*
X201056056Y-85452257D01*
X201013996Y-85568565D01*
X200980681Y-85666739D01*
X200959542Y-85737843D01*
X200954006Y-85772942D01*
X200954467Y-85774172D01*
X200973224Y-85802861D01*
X201015777Y-85865985D01*
X201077654Y-85956973D01*
X201154383Y-86069255D01*
X201241492Y-86196260D01*
X201266299Y-86232353D01*
X201354753Y-86363203D01*
X201432589Y-86482591D01*
X201495567Y-86583662D01*
X201539446Y-86659559D01*
X201559986Y-86703427D01*
X201560981Y-86708817D01*
X201543723Y-86737144D01*
X201496036Y-86793261D01*
X201424051Y-86871137D01*
X201333898Y-86964740D01*
X201231706Y-87068041D01*
X201123606Y-87175006D01*
X201015729Y-87279606D01*
X200914205Y-87375809D01*
X200825163Y-87457584D01*
X200754734Y-87518900D01*
X200709048Y-87553726D01*
X200696410Y-87559412D01*
X200666992Y-87546020D01*
X200606762Y-87509899D01*
X200525530Y-87457136D01*
X200463031Y-87414667D01*
X200349786Y-87336740D01*
X200215675Y-87244984D01*
X200081156Y-87153375D01*
X200008834Y-87104346D01*
X199764039Y-86938770D01*
X199558551Y-87049875D01*
X199464937Y-87098548D01*
X199385331Y-87136381D01*
X199331468Y-87157958D01*
X199317758Y-87160961D01*
X199301271Y-87138793D01*
X199268746Y-87076149D01*
X199222609Y-86978809D01*
X199165291Y-86852549D01*
X199099217Y-86703150D01*
X199026816Y-86536388D01*
X198950517Y-86358042D01*
X198872747Y-86173891D01*
X198795935Y-85989712D01*
X198722507Y-85811285D01*
X198654893Y-85644387D01*
X198595521Y-85494797D01*
X198546817Y-85368293D01*
X198511211Y-85270654D01*
X198491131Y-85207657D01*
X198487901Y-85186021D01*
X198513497Y-85158424D01*
X198569539Y-85113625D01*
X198644312Y-85060934D01*
X198650588Y-85056765D01*
X198843846Y-84902069D01*
X198999675Y-84721591D01*
X199116725Y-84521102D01*
X199193646Y-84306374D01*
X199229087Y-84083177D01*
X199221698Y-83857281D01*
X199170128Y-83634459D01*
X199073027Y-83420479D01*
X199044459Y-83373664D01*
X198895869Y-83184618D01*
X198720328Y-83032812D01*
X198523911Y-82919034D01*
X198312694Y-82844075D01*
X198092754Y-82808722D01*
X197870164Y-82813767D01*
X197651002Y-82859999D01*
X197441343Y-82948206D01*
X197247262Y-83079179D01*
X197187227Y-83132337D01*
X197034436Y-83298739D01*
X196923098Y-83473912D01*
X196846724Y-83670266D01*
X196804188Y-83864717D01*
X196793687Y-84083342D01*
X196828701Y-84303052D01*
X196905674Y-84516420D01*
X197021048Y-84716022D01*
X197171266Y-84894429D01*
X197352774Y-85044217D01*
X197376628Y-85060006D01*
X197452202Y-85111712D01*
X197509652Y-85156512D01*
X197537118Y-85185117D01*
X197537518Y-85186021D01*
X197531621Y-85216964D01*
X197508246Y-85287191D01*
X197469822Y-85390925D01*
X197418778Y-85522390D01*
X197357543Y-85675807D01*
X197288545Y-85845401D01*
X197214214Y-86025393D01*
X197136979Y-86210008D01*
X197059269Y-86393468D01*
X196983512Y-86569996D01*
X196912138Y-86733814D01*
X196847575Y-86879147D01*
X196792253Y-87000217D01*
X196748601Y-87091247D01*
X196719047Y-87146460D01*
X196707145Y-87160961D01*
X196670778Y-87149669D01*
X196602731Y-87119385D01*
X196514737Y-87075520D01*
X196466351Y-87049875D01*
X196260864Y-86938770D01*
X196016069Y-87104346D01*
X195891107Y-87189170D01*
X195754296Y-87282516D01*
X195626089Y-87370408D01*
X195561872Y-87414667D01*
X195471552Y-87475318D01*
X195395072Y-87523381D01*
X195342408Y-87552770D01*
X195325303Y-87558982D01*
X195300406Y-87542223D01*
X195245306Y-87495436D01*
X195165344Y-87423480D01*
X195065861Y-87331212D01*
X194952201Y-87223490D01*
X194880316Y-87154326D01*
X194754552Y-87030757D01*
X194645864Y-86920234D01*
X194558646Y-86827485D01*
X194497290Y-86757237D01*
X194466192Y-86714220D01*
X194463209Y-86705490D01*
X194477054Y-86672284D01*
X194515313Y-86605142D01*
X194573742Y-86510863D01*
X194648098Y-86396245D01*
X194734136Y-86268083D01*
X194758603Y-86232353D01*
X194847755Y-86102489D01*
X194927739Y-85985569D01*
X194994081Y-85888162D01*
X195042312Y-85816839D01*
X195067958Y-85778170D01*
X195070436Y-85774172D01*
X195066730Y-85743355D01*
X195047062Y-85675599D01*
X195014861Y-85579839D01*
X194973556Y-85465009D01*
X194926576Y-85340044D01*
X194877350Y-85213879D01*
X194829309Y-85095448D01*
X194785882Y-84993685D01*
X194750497Y-84917526D01*
X194726585Y-84875904D01*
X194724885Y-84873908D01*
X194710263Y-84862013D01*
X194685566Y-84850250D01*
X194645373Y-84837401D01*
X194584264Y-84822249D01*
X194496818Y-84803576D01*
X194377613Y-84780165D01*
X194221228Y-84750797D01*
X194022244Y-84714255D01*
X193979161Y-84706398D01*
X193851471Y-84681727D01*
X193740154Y-84657593D01*
X193655046Y-84636324D01*
X193605984Y-84620248D01*
X193599406Y-84616500D01*
X193588565Y-84583273D01*
X193579754Y-84509021D01*
X193572977Y-84402376D01*
X193568241Y-84271967D01*
X193565551Y-84126427D01*
X193564914Y-83974386D01*
X193566335Y-83824476D01*
X193569821Y-83685328D01*
X193575377Y-83565572D01*
X193583009Y-83473841D01*
X193592723Y-83418766D01*
X193598579Y-83407493D01*
X193631181Y-83396123D01*
X193705419Y-83377624D01*
X193813897Y-83353602D01*
X193949218Y-83325662D01*
X194103986Y-83295408D01*
X194188308Y-83279551D01*
X194348297Y-83249644D01*
X194490968Y-83222550D01*
X194609349Y-83199631D01*
X194696466Y-83182243D01*
X194745346Y-83171747D01*
X194753391Y-83169420D01*
X194766988Y-83143186D01*
X194795730Y-83079995D01*
X194835786Y-82988877D01*
X194883325Y-82878857D01*
X194934516Y-82758965D01*
X194985527Y-82638227D01*
X195032527Y-82525671D01*
X195071685Y-82430326D01*
X195099170Y-82361217D01*
X195111150Y-82327374D01*
X195111373Y-82325895D01*
X195097792Y-82299197D01*
X195059716Y-82237760D01*
X195001148Y-82147689D01*
X194926089Y-82035090D01*
X194838541Y-81906070D01*
X194787648Y-81831961D01*
X194694910Y-81696077D01*
X194612542Y-81572709D01*
X194544562Y-81468097D01*
X194494989Y-81388483D01*
X194467843Y-81340107D01*
X194463922Y-81329262D01*
X194480776Y-81304020D01*
X194527369Y-81250124D01*
X194597749Y-81173613D01*
X194685966Y-81080523D01*
X194786066Y-80976895D01*
X194892099Y-80868764D01*
X194998112Y-80762170D01*
X195098153Y-80663150D01*
X195186271Y-80577742D01*
X195256514Y-80511985D01*
X195302929Y-80471916D01*
X195318457Y-80462353D01*
X195343740Y-80475800D01*
X195404212Y-80513575D01*
X195493993Y-80571835D01*
X195607204Y-80646734D01*
X195737964Y-80734425D01*
X195836600Y-80801233D01*
X196334958Y-81140112D01*
X196750371Y-80968865D01*
X197165785Y-80797618D01*
X197278367Y-80200427D01*
X197390950Y-79603235D01*
X198633953Y-79603235D01*
X198746536Y-80200427D01*
D12*
%TO.C,J1*%
X225325000Y-91665000D02*
X212050000Y-91665000D01*
X233640000Y-91665000D02*
X228490000Y-91665000D01*
X233640000Y-75535000D02*
X233640000Y-91665000D01*
X228490000Y-75535000D02*
X233640000Y-75535000D01*
X212050000Y-75535000D02*
X225325000Y-75535000D01*
X212050000Y-91665000D02*
X212050000Y-75535000D01*
D13*
X211650000Y-81065000D02*
G75*
G03*
X211650000Y-81065000I-100000J0D01*
G01*
D14*
X208717380Y-88823333D02*
X209431666Y-88823333D01*
X209574523Y-88870952D01*
X209669761Y-88966190D01*
X209717380Y-89109047D01*
X209717380Y-89204285D01*
X209717380Y-87823333D02*
X209717380Y-88394761D01*
X209717380Y-88109047D02*
X208717380Y-88109047D01*
X208860238Y-88204285D01*
X208955476Y-88299523D01*
X209003095Y-88394761D01*
%TD*%
M02*
