%TF.GenerationSoftware,KiCad,Pcbnew,(5.1.8-0-10_14)*%
%TF.CreationDate,2021-03-11T09:36:11+11:00*%
%TF.ProjectId,Sensor,53656e73-6f72-42e6-9b69-6361645f7063,rev?*%
%TF.SameCoordinates,Original*%
%TF.FileFunction,Copper,L1,Top*%
%TF.FilePolarity,Positive*%
%FSLAX46Y46*%
G04 Gerber Fmt 4.6, Leading zero omitted, Abs format (unit mm)*
G04 Created by KiCad (PCBNEW (5.1.8-0-10_14)) date 2021-03-11 09:36:11*
%MOMM*%
%LPD*%
G01*
G04 APERTURE LIST*
%TA.AperFunction,ComponentPad*%
%ADD10C,1.524000*%
%TD*%
%TA.AperFunction,ComponentPad*%
%ADD11C,2.355000*%
%TD*%
%TA.AperFunction,ComponentPad*%
%ADD12C,1.398000*%
%TD*%
%TA.AperFunction,ComponentPad*%
%ADD13R,1.398000X1.398000*%
%TD*%
%TA.AperFunction,ViaPad*%
%ADD14C,0.800000*%
%TD*%
%TA.AperFunction,Conductor*%
%ADD15C,0.600000*%
%TD*%
%TA.AperFunction,Conductor*%
%ADD16C,0.254000*%
%TD*%
%TA.AperFunction,Conductor*%
%ADD17C,0.100000*%
%TD*%
G04 APERTURE END LIST*
D10*
%TO.P,D1,2*%
%TO.N,/AnalogGND*%
X208000000Y-83660000D03*
%TO.P,D1,3*%
%TO.N,Net-(C2-Pad2)*%
X210600000Y-86200000D03*
%TO.P,D1,1*%
%TO.N,/AnalogGND*%
X210600000Y-81100000D03*
%TD*%
D11*
%TO.P,J1,S2*%
%TO.N,/SensorGND*%
X226910000Y-75800000D03*
%TO.P,J1,S1*%
X226910000Y-91400000D03*
D12*
%TO.P,J1,8*%
X218400000Y-86135000D03*
%TO.P,J1,7*%
%TO.N,Net-(J1-Pad7)*%
X216370000Y-87155000D03*
%TO.P,J1,6*%
%TO.N,/Fout*%
X216370000Y-85125000D03*
%TO.P,J1,5*%
%TO.N,Net-(J1-Pad5)*%
X216370000Y-83095000D03*
%TO.P,J1,4*%
%TO.N,/AnalogGND*%
X218400000Y-84105000D03*
%TO.P,J1,3*%
%TO.N,Net-(J1-Pad3)*%
X218400000Y-82075000D03*
%TO.P,J1,2*%
%TO.N,Net-(J1-Pad2)*%
X218400000Y-80045000D03*
D13*
%TO.P,J1,1*%
%TO.N,/3.3V*%
X216370000Y-81065000D03*
%TD*%
D14*
%TO.N,/3.3V*%
X212600000Y-88800000D03*
X209200000Y-88600000D03*
%TD*%
D15*
%TO.N,/SensorGND*%
X218400000Y-86135000D02*
X226335000Y-86135000D01*
X226910000Y-86710000D02*
X226910000Y-91400000D01*
X226335000Y-86135000D02*
X226910000Y-86710000D01*
X226485000Y-86135000D02*
X226910000Y-85710000D01*
X226335000Y-86135000D02*
X226485000Y-86135000D01*
X226910000Y-85710000D02*
X226910000Y-75800000D01*
X226910000Y-86710000D02*
X226910000Y-85710000D01*
%TD*%
D16*
%TO.N,/3.3V*%
X212352269Y-64130695D02*
X214090430Y-64366144D01*
X215800488Y-64756454D01*
X217468675Y-65298481D01*
X219081559Y-65987861D01*
X220626155Y-66819043D01*
X222090026Y-67785336D01*
X223461386Y-68878959D01*
X224729194Y-70091107D01*
X225883242Y-71412021D01*
X226914238Y-72831066D01*
X227813881Y-74336815D01*
X227911459Y-74539439D01*
X227670016Y-74378111D01*
X227378015Y-74257161D01*
X227068029Y-74195500D01*
X226751971Y-74195500D01*
X226441985Y-74257161D01*
X226149984Y-74378111D01*
X225887191Y-74553704D01*
X225663704Y-74777191D01*
X225488111Y-75039984D01*
X225367161Y-75331985D01*
X225305500Y-75641971D01*
X225305500Y-75958029D01*
X225367161Y-76268015D01*
X225488111Y-76560016D01*
X225663704Y-76822809D01*
X225887191Y-77046296D01*
X226149984Y-77221889D01*
X226183001Y-77235565D01*
X226183000Y-85408000D01*
X219265404Y-85408000D01*
X219117783Y-85260379D01*
X218933361Y-85137152D01*
X218891952Y-85120000D01*
X218933361Y-85102848D01*
X219117783Y-84979621D01*
X219274621Y-84822783D01*
X219397848Y-84638361D01*
X219482728Y-84433442D01*
X219526000Y-84215901D01*
X219526000Y-83994099D01*
X219482728Y-83776558D01*
X219397848Y-83571639D01*
X219274621Y-83387217D01*
X219117783Y-83230379D01*
X218933361Y-83107152D01*
X218891952Y-83090000D01*
X218933361Y-83072848D01*
X219117783Y-82949621D01*
X219274621Y-82792783D01*
X219397848Y-82608361D01*
X219482728Y-82403442D01*
X219526000Y-82185901D01*
X219526000Y-81964099D01*
X219482728Y-81746558D01*
X219397848Y-81541639D01*
X219274621Y-81357217D01*
X219117783Y-81200379D01*
X218933361Y-81077152D01*
X218891952Y-81060000D01*
X218933361Y-81042848D01*
X219117783Y-80919621D01*
X219274621Y-80762783D01*
X219397848Y-80578361D01*
X219482728Y-80373442D01*
X219526000Y-80155901D01*
X219526000Y-79934099D01*
X219482728Y-79716558D01*
X219397848Y-79511639D01*
X219274621Y-79327217D01*
X219117783Y-79170379D01*
X218933361Y-79047152D01*
X218728442Y-78962272D01*
X218510901Y-78919000D01*
X218289099Y-78919000D01*
X218071558Y-78962272D01*
X217866639Y-79047152D01*
X217682217Y-79170379D01*
X217525379Y-79327217D01*
X217402152Y-79511639D01*
X217317272Y-79716558D01*
X217305795Y-79774258D01*
X217193482Y-79740188D01*
X217069000Y-79727928D01*
X216655750Y-79731000D01*
X216497000Y-79889750D01*
X216497000Y-80938000D01*
X217545250Y-80938000D01*
X217622923Y-80860327D01*
X217682217Y-80919621D01*
X217866639Y-81042848D01*
X217908048Y-81060000D01*
X217866639Y-81077152D01*
X217682217Y-81200379D01*
X217617923Y-81264673D01*
X217545250Y-81192000D01*
X216497000Y-81192000D01*
X216497000Y-81212000D01*
X216243000Y-81212000D01*
X216243000Y-81192000D01*
X215194750Y-81192000D01*
X215036000Y-81350750D01*
X215032928Y-81764000D01*
X215045188Y-81888482D01*
X215081498Y-82008180D01*
X215140463Y-82118494D01*
X215219815Y-82215185D01*
X215316506Y-82294537D01*
X215426820Y-82353502D01*
X215497618Y-82374978D01*
X215495379Y-82377217D01*
X215372152Y-82561639D01*
X215287272Y-82766558D01*
X215244000Y-82984099D01*
X215244000Y-83205901D01*
X215287272Y-83423442D01*
X215372152Y-83628361D01*
X215495379Y-83812783D01*
X215652217Y-83969621D01*
X215836639Y-84092848D01*
X215878048Y-84110000D01*
X215836639Y-84127152D01*
X215652217Y-84250379D01*
X215495379Y-84407217D01*
X215372152Y-84591639D01*
X215287272Y-84796558D01*
X215244000Y-85014099D01*
X215244000Y-85235901D01*
X215287272Y-85453442D01*
X215372152Y-85658361D01*
X215495379Y-85842783D01*
X215652217Y-85999621D01*
X215836639Y-86122848D01*
X215878048Y-86140000D01*
X215836639Y-86157152D01*
X215652217Y-86280379D01*
X215495379Y-86437217D01*
X215372152Y-86621639D01*
X215287272Y-86826558D01*
X215244000Y-87044099D01*
X215244000Y-87265901D01*
X215287272Y-87483442D01*
X215372152Y-87688361D01*
X215495379Y-87872783D01*
X215652217Y-88029621D01*
X215836639Y-88152848D01*
X216041558Y-88237728D01*
X216259099Y-88281000D01*
X216480901Y-88281000D01*
X216698442Y-88237728D01*
X216903361Y-88152848D01*
X217087783Y-88029621D01*
X217244621Y-87872783D01*
X217367848Y-87688361D01*
X217452728Y-87483442D01*
X217496000Y-87265901D01*
X217496000Y-87044099D01*
X217452728Y-86826558D01*
X217367848Y-86621639D01*
X217244621Y-86437217D01*
X217087783Y-86280379D01*
X216903361Y-86157152D01*
X216861952Y-86140000D01*
X216903361Y-86122848D01*
X217087783Y-85999621D01*
X217244621Y-85842783D01*
X217367848Y-85658361D01*
X217452728Y-85453442D01*
X217496000Y-85235901D01*
X217496000Y-85014099D01*
X217452728Y-84796558D01*
X217367848Y-84591639D01*
X217244621Y-84407217D01*
X217087783Y-84250379D01*
X216903361Y-84127152D01*
X216861952Y-84110000D01*
X216903361Y-84092848D01*
X217087783Y-83969621D01*
X217244621Y-83812783D01*
X217367848Y-83628361D01*
X217452728Y-83423442D01*
X217496000Y-83205901D01*
X217496000Y-82984099D01*
X217452728Y-82766558D01*
X217367848Y-82561639D01*
X217244621Y-82377217D01*
X217242382Y-82374978D01*
X217307671Y-82355173D01*
X217317272Y-82403442D01*
X217402152Y-82608361D01*
X217525379Y-82792783D01*
X217682217Y-82949621D01*
X217866639Y-83072848D01*
X217908048Y-83090000D01*
X217866639Y-83107152D01*
X217682217Y-83230379D01*
X217525379Y-83387217D01*
X217402152Y-83571639D01*
X217317272Y-83776558D01*
X217274000Y-83994099D01*
X217274000Y-84215901D01*
X217317272Y-84433442D01*
X217402152Y-84638361D01*
X217525379Y-84822783D01*
X217682217Y-84979621D01*
X217866639Y-85102848D01*
X217908048Y-85120000D01*
X217866639Y-85137152D01*
X217682217Y-85260379D01*
X217525379Y-85417217D01*
X217402152Y-85601639D01*
X217317272Y-85806558D01*
X217274000Y-86024099D01*
X217274000Y-86245901D01*
X217317272Y-86463442D01*
X217402152Y-86668361D01*
X217525379Y-86852783D01*
X217682217Y-87009621D01*
X217866639Y-87132848D01*
X218071558Y-87217728D01*
X218289099Y-87261000D01*
X218510901Y-87261000D01*
X218728442Y-87217728D01*
X218933361Y-87132848D01*
X219117783Y-87009621D01*
X219265404Y-86862000D01*
X226033867Y-86862000D01*
X226183000Y-87011133D01*
X226183001Y-89964435D01*
X226149984Y-89978111D01*
X225887191Y-90153704D01*
X225663704Y-90377191D01*
X225488111Y-90639984D01*
X225367161Y-90931985D01*
X225305500Y-91241971D01*
X225305500Y-91558029D01*
X225367161Y-91868015D01*
X225488111Y-92160016D01*
X225663704Y-92422809D01*
X225887191Y-92646296D01*
X226149984Y-92821889D01*
X226441985Y-92942839D01*
X226751971Y-93004500D01*
X227068029Y-93004500D01*
X227378015Y-92942839D01*
X227670016Y-92821889D01*
X227911459Y-92660561D01*
X227813881Y-92863185D01*
X226914238Y-94368934D01*
X225883242Y-95787979D01*
X224729194Y-97108893D01*
X223461386Y-98321041D01*
X222090026Y-99414664D01*
X220626155Y-100380957D01*
X219081559Y-101212139D01*
X217468675Y-101901519D01*
X215800488Y-102443546D01*
X214090430Y-102833856D01*
X212352269Y-103069305D01*
X210600000Y-103148000D01*
X208847731Y-103069305D01*
X207109570Y-102833856D01*
X205399512Y-102443546D01*
X203731325Y-101901519D01*
X202118441Y-101212139D01*
X200573845Y-100380957D01*
X199109974Y-99414664D01*
X197738614Y-98321041D01*
X196470806Y-97108893D01*
X195316758Y-95787979D01*
X194285762Y-94368934D01*
X193386119Y-92863185D01*
X192625071Y-91282853D01*
X192008747Y-89640664D01*
X191863093Y-89112896D01*
X221348000Y-89112896D01*
X221348000Y-89517104D01*
X221426857Y-89913546D01*
X221581541Y-90286987D01*
X221806107Y-90623074D01*
X222091926Y-90908893D01*
X222428013Y-91133459D01*
X222801454Y-91288143D01*
X223197896Y-91367000D01*
X223602104Y-91367000D01*
X223998546Y-91288143D01*
X224371987Y-91133459D01*
X224708074Y-90908893D01*
X224993893Y-90623074D01*
X225218459Y-90286987D01*
X225373143Y-89913546D01*
X225452000Y-89517104D01*
X225452000Y-89112896D01*
X225373143Y-88716454D01*
X225218459Y-88343013D01*
X224993893Y-88006926D01*
X224708074Y-87721107D01*
X224371987Y-87496541D01*
X223998546Y-87341857D01*
X223602104Y-87263000D01*
X223197896Y-87263000D01*
X222801454Y-87341857D01*
X222428013Y-87496541D01*
X222091926Y-87721107D01*
X221806107Y-88006926D01*
X221581541Y-88343013D01*
X221426857Y-88716454D01*
X221348000Y-89112896D01*
X191863093Y-89112896D01*
X191542109Y-87949839D01*
X191228914Y-86223992D01*
X191216215Y-86082894D01*
X209411000Y-86082894D01*
X209411000Y-86317106D01*
X209456693Y-86546818D01*
X209546322Y-86763203D01*
X209676443Y-86957943D01*
X209842057Y-87123557D01*
X210036797Y-87253678D01*
X210253182Y-87343307D01*
X210482894Y-87389000D01*
X210717106Y-87389000D01*
X210946818Y-87343307D01*
X211163203Y-87253678D01*
X211357943Y-87123557D01*
X211523557Y-86957943D01*
X211653678Y-86763203D01*
X211743307Y-86546818D01*
X211789000Y-86317106D01*
X211789000Y-86082894D01*
X211743307Y-85853182D01*
X211653678Y-85636797D01*
X211523557Y-85442057D01*
X211357943Y-85276443D01*
X211163203Y-85146322D01*
X210946818Y-85056693D01*
X210717106Y-85011000D01*
X210482894Y-85011000D01*
X210253182Y-85056693D01*
X210036797Y-85146322D01*
X209842057Y-85276443D01*
X209676443Y-85442057D01*
X209546322Y-85636797D01*
X209456693Y-85853182D01*
X209411000Y-86082894D01*
X191216215Y-86082894D01*
X191071684Y-84477018D01*
X191071684Y-83542894D01*
X206811000Y-83542894D01*
X206811000Y-83777106D01*
X206856693Y-84006818D01*
X206946322Y-84223203D01*
X207076443Y-84417943D01*
X207242057Y-84583557D01*
X207436797Y-84713678D01*
X207653182Y-84803307D01*
X207882894Y-84849000D01*
X208117106Y-84849000D01*
X208346818Y-84803307D01*
X208563203Y-84713678D01*
X208757943Y-84583557D01*
X208923557Y-84417943D01*
X209053678Y-84223203D01*
X209143307Y-84006818D01*
X209189000Y-83777106D01*
X209189000Y-83542894D01*
X209143307Y-83313182D01*
X209053678Y-83096797D01*
X208923557Y-82902057D01*
X208757943Y-82736443D01*
X208563203Y-82606322D01*
X208346818Y-82516693D01*
X208117106Y-82471000D01*
X207882894Y-82471000D01*
X207653182Y-82516693D01*
X207436797Y-82606322D01*
X207242057Y-82736443D01*
X207076443Y-82902057D01*
X206946322Y-83096797D01*
X206856693Y-83313182D01*
X206811000Y-83542894D01*
X191071684Y-83542894D01*
X191071684Y-82722982D01*
X191228294Y-80982894D01*
X209411000Y-80982894D01*
X209411000Y-81217106D01*
X209456693Y-81446818D01*
X209546322Y-81663203D01*
X209676443Y-81857943D01*
X209842057Y-82023557D01*
X210036797Y-82153678D01*
X210253182Y-82243307D01*
X210482894Y-82289000D01*
X210717106Y-82289000D01*
X210946818Y-82243307D01*
X211163203Y-82153678D01*
X211357943Y-82023557D01*
X211523557Y-81857943D01*
X211653678Y-81663203D01*
X211743307Y-81446818D01*
X211789000Y-81217106D01*
X211789000Y-80982894D01*
X211743307Y-80753182D01*
X211653678Y-80536797D01*
X211539556Y-80366000D01*
X215032928Y-80366000D01*
X215036000Y-80779250D01*
X215194750Y-80938000D01*
X216243000Y-80938000D01*
X216243000Y-79889750D01*
X216084250Y-79731000D01*
X215671000Y-79727928D01*
X215546518Y-79740188D01*
X215426820Y-79776498D01*
X215316506Y-79835463D01*
X215219815Y-79914815D01*
X215140463Y-80011506D01*
X215081498Y-80121820D01*
X215045188Y-80241518D01*
X215032928Y-80366000D01*
X211539556Y-80366000D01*
X211523557Y-80342057D01*
X211357943Y-80176443D01*
X211163203Y-80046322D01*
X210946818Y-79956693D01*
X210717106Y-79911000D01*
X210482894Y-79911000D01*
X210253182Y-79956693D01*
X210036797Y-80046322D01*
X209842057Y-80176443D01*
X209676443Y-80342057D01*
X209546322Y-80536797D01*
X209456693Y-80753182D01*
X209411000Y-80982894D01*
X191228294Y-80982894D01*
X191228914Y-80976008D01*
X191542109Y-79250161D01*
X191974646Y-77682896D01*
X221348000Y-77682896D01*
X221348000Y-78087104D01*
X221426857Y-78483546D01*
X221581541Y-78856987D01*
X221806107Y-79193074D01*
X222091926Y-79478893D01*
X222428013Y-79703459D01*
X222801454Y-79858143D01*
X223197896Y-79937000D01*
X223602104Y-79937000D01*
X223998546Y-79858143D01*
X224371987Y-79703459D01*
X224708074Y-79478893D01*
X224993893Y-79193074D01*
X225218459Y-78856987D01*
X225373143Y-78483546D01*
X225452000Y-78087104D01*
X225452000Y-77682896D01*
X225373143Y-77286454D01*
X225218459Y-76913013D01*
X224993893Y-76576926D01*
X224708074Y-76291107D01*
X224371987Y-76066541D01*
X223998546Y-75911857D01*
X223602104Y-75833000D01*
X223197896Y-75833000D01*
X222801454Y-75911857D01*
X222428013Y-76066541D01*
X222091926Y-76291107D01*
X221806107Y-76576926D01*
X221581541Y-76913013D01*
X221426857Y-77286454D01*
X221348000Y-77682896D01*
X191974646Y-77682896D01*
X192008747Y-77559336D01*
X192625071Y-75917147D01*
X193386119Y-74336815D01*
X194285762Y-72831066D01*
X195316758Y-71412021D01*
X196470806Y-70091107D01*
X197738614Y-68878959D01*
X199109974Y-67785336D01*
X200573845Y-66819043D01*
X202118441Y-65987861D01*
X203731325Y-65298481D01*
X205399512Y-64756454D01*
X207109570Y-64366144D01*
X208847731Y-64130695D01*
X210600000Y-64052000D01*
X212352269Y-64130695D01*
%TA.AperFunction,Conductor*%
D17*
G36*
X212352269Y-64130695D02*
G01*
X214090430Y-64366144D01*
X215800488Y-64756454D01*
X217468675Y-65298481D01*
X219081559Y-65987861D01*
X220626155Y-66819043D01*
X222090026Y-67785336D01*
X223461386Y-68878959D01*
X224729194Y-70091107D01*
X225883242Y-71412021D01*
X226914238Y-72831066D01*
X227813881Y-74336815D01*
X227911459Y-74539439D01*
X227670016Y-74378111D01*
X227378015Y-74257161D01*
X227068029Y-74195500D01*
X226751971Y-74195500D01*
X226441985Y-74257161D01*
X226149984Y-74378111D01*
X225887191Y-74553704D01*
X225663704Y-74777191D01*
X225488111Y-75039984D01*
X225367161Y-75331985D01*
X225305500Y-75641971D01*
X225305500Y-75958029D01*
X225367161Y-76268015D01*
X225488111Y-76560016D01*
X225663704Y-76822809D01*
X225887191Y-77046296D01*
X226149984Y-77221889D01*
X226183001Y-77235565D01*
X226183000Y-85408000D01*
X219265404Y-85408000D01*
X219117783Y-85260379D01*
X218933361Y-85137152D01*
X218891952Y-85120000D01*
X218933361Y-85102848D01*
X219117783Y-84979621D01*
X219274621Y-84822783D01*
X219397848Y-84638361D01*
X219482728Y-84433442D01*
X219526000Y-84215901D01*
X219526000Y-83994099D01*
X219482728Y-83776558D01*
X219397848Y-83571639D01*
X219274621Y-83387217D01*
X219117783Y-83230379D01*
X218933361Y-83107152D01*
X218891952Y-83090000D01*
X218933361Y-83072848D01*
X219117783Y-82949621D01*
X219274621Y-82792783D01*
X219397848Y-82608361D01*
X219482728Y-82403442D01*
X219526000Y-82185901D01*
X219526000Y-81964099D01*
X219482728Y-81746558D01*
X219397848Y-81541639D01*
X219274621Y-81357217D01*
X219117783Y-81200379D01*
X218933361Y-81077152D01*
X218891952Y-81060000D01*
X218933361Y-81042848D01*
X219117783Y-80919621D01*
X219274621Y-80762783D01*
X219397848Y-80578361D01*
X219482728Y-80373442D01*
X219526000Y-80155901D01*
X219526000Y-79934099D01*
X219482728Y-79716558D01*
X219397848Y-79511639D01*
X219274621Y-79327217D01*
X219117783Y-79170379D01*
X218933361Y-79047152D01*
X218728442Y-78962272D01*
X218510901Y-78919000D01*
X218289099Y-78919000D01*
X218071558Y-78962272D01*
X217866639Y-79047152D01*
X217682217Y-79170379D01*
X217525379Y-79327217D01*
X217402152Y-79511639D01*
X217317272Y-79716558D01*
X217305795Y-79774258D01*
X217193482Y-79740188D01*
X217069000Y-79727928D01*
X216655750Y-79731000D01*
X216497000Y-79889750D01*
X216497000Y-80938000D01*
X217545250Y-80938000D01*
X217622923Y-80860327D01*
X217682217Y-80919621D01*
X217866639Y-81042848D01*
X217908048Y-81060000D01*
X217866639Y-81077152D01*
X217682217Y-81200379D01*
X217617923Y-81264673D01*
X217545250Y-81192000D01*
X216497000Y-81192000D01*
X216497000Y-81212000D01*
X216243000Y-81212000D01*
X216243000Y-81192000D01*
X215194750Y-81192000D01*
X215036000Y-81350750D01*
X215032928Y-81764000D01*
X215045188Y-81888482D01*
X215081498Y-82008180D01*
X215140463Y-82118494D01*
X215219815Y-82215185D01*
X215316506Y-82294537D01*
X215426820Y-82353502D01*
X215497618Y-82374978D01*
X215495379Y-82377217D01*
X215372152Y-82561639D01*
X215287272Y-82766558D01*
X215244000Y-82984099D01*
X215244000Y-83205901D01*
X215287272Y-83423442D01*
X215372152Y-83628361D01*
X215495379Y-83812783D01*
X215652217Y-83969621D01*
X215836639Y-84092848D01*
X215878048Y-84110000D01*
X215836639Y-84127152D01*
X215652217Y-84250379D01*
X215495379Y-84407217D01*
X215372152Y-84591639D01*
X215287272Y-84796558D01*
X215244000Y-85014099D01*
X215244000Y-85235901D01*
X215287272Y-85453442D01*
X215372152Y-85658361D01*
X215495379Y-85842783D01*
X215652217Y-85999621D01*
X215836639Y-86122848D01*
X215878048Y-86140000D01*
X215836639Y-86157152D01*
X215652217Y-86280379D01*
X215495379Y-86437217D01*
X215372152Y-86621639D01*
X215287272Y-86826558D01*
X215244000Y-87044099D01*
X215244000Y-87265901D01*
X215287272Y-87483442D01*
X215372152Y-87688361D01*
X215495379Y-87872783D01*
X215652217Y-88029621D01*
X215836639Y-88152848D01*
X216041558Y-88237728D01*
X216259099Y-88281000D01*
X216480901Y-88281000D01*
X216698442Y-88237728D01*
X216903361Y-88152848D01*
X217087783Y-88029621D01*
X217244621Y-87872783D01*
X217367848Y-87688361D01*
X217452728Y-87483442D01*
X217496000Y-87265901D01*
X217496000Y-87044099D01*
X217452728Y-86826558D01*
X217367848Y-86621639D01*
X217244621Y-86437217D01*
X217087783Y-86280379D01*
X216903361Y-86157152D01*
X216861952Y-86140000D01*
X216903361Y-86122848D01*
X217087783Y-85999621D01*
X217244621Y-85842783D01*
X217367848Y-85658361D01*
X217452728Y-85453442D01*
X217496000Y-85235901D01*
X217496000Y-85014099D01*
X217452728Y-84796558D01*
X217367848Y-84591639D01*
X217244621Y-84407217D01*
X217087783Y-84250379D01*
X216903361Y-84127152D01*
X216861952Y-84110000D01*
X216903361Y-84092848D01*
X217087783Y-83969621D01*
X217244621Y-83812783D01*
X217367848Y-83628361D01*
X217452728Y-83423442D01*
X217496000Y-83205901D01*
X217496000Y-82984099D01*
X217452728Y-82766558D01*
X217367848Y-82561639D01*
X217244621Y-82377217D01*
X217242382Y-82374978D01*
X217307671Y-82355173D01*
X217317272Y-82403442D01*
X217402152Y-82608361D01*
X217525379Y-82792783D01*
X217682217Y-82949621D01*
X217866639Y-83072848D01*
X217908048Y-83090000D01*
X217866639Y-83107152D01*
X217682217Y-83230379D01*
X217525379Y-83387217D01*
X217402152Y-83571639D01*
X217317272Y-83776558D01*
X217274000Y-83994099D01*
X217274000Y-84215901D01*
X217317272Y-84433442D01*
X217402152Y-84638361D01*
X217525379Y-84822783D01*
X217682217Y-84979621D01*
X217866639Y-85102848D01*
X217908048Y-85120000D01*
X217866639Y-85137152D01*
X217682217Y-85260379D01*
X217525379Y-85417217D01*
X217402152Y-85601639D01*
X217317272Y-85806558D01*
X217274000Y-86024099D01*
X217274000Y-86245901D01*
X217317272Y-86463442D01*
X217402152Y-86668361D01*
X217525379Y-86852783D01*
X217682217Y-87009621D01*
X217866639Y-87132848D01*
X218071558Y-87217728D01*
X218289099Y-87261000D01*
X218510901Y-87261000D01*
X218728442Y-87217728D01*
X218933361Y-87132848D01*
X219117783Y-87009621D01*
X219265404Y-86862000D01*
X226033867Y-86862000D01*
X226183000Y-87011133D01*
X226183001Y-89964435D01*
X226149984Y-89978111D01*
X225887191Y-90153704D01*
X225663704Y-90377191D01*
X225488111Y-90639984D01*
X225367161Y-90931985D01*
X225305500Y-91241971D01*
X225305500Y-91558029D01*
X225367161Y-91868015D01*
X225488111Y-92160016D01*
X225663704Y-92422809D01*
X225887191Y-92646296D01*
X226149984Y-92821889D01*
X226441985Y-92942839D01*
X226751971Y-93004500D01*
X227068029Y-93004500D01*
X227378015Y-92942839D01*
X227670016Y-92821889D01*
X227911459Y-92660561D01*
X227813881Y-92863185D01*
X226914238Y-94368934D01*
X225883242Y-95787979D01*
X224729194Y-97108893D01*
X223461386Y-98321041D01*
X222090026Y-99414664D01*
X220626155Y-100380957D01*
X219081559Y-101212139D01*
X217468675Y-101901519D01*
X215800488Y-102443546D01*
X214090430Y-102833856D01*
X212352269Y-103069305D01*
X210600000Y-103148000D01*
X208847731Y-103069305D01*
X207109570Y-102833856D01*
X205399512Y-102443546D01*
X203731325Y-101901519D01*
X202118441Y-101212139D01*
X200573845Y-100380957D01*
X199109974Y-99414664D01*
X197738614Y-98321041D01*
X196470806Y-97108893D01*
X195316758Y-95787979D01*
X194285762Y-94368934D01*
X193386119Y-92863185D01*
X192625071Y-91282853D01*
X192008747Y-89640664D01*
X191863093Y-89112896D01*
X221348000Y-89112896D01*
X221348000Y-89517104D01*
X221426857Y-89913546D01*
X221581541Y-90286987D01*
X221806107Y-90623074D01*
X222091926Y-90908893D01*
X222428013Y-91133459D01*
X222801454Y-91288143D01*
X223197896Y-91367000D01*
X223602104Y-91367000D01*
X223998546Y-91288143D01*
X224371987Y-91133459D01*
X224708074Y-90908893D01*
X224993893Y-90623074D01*
X225218459Y-90286987D01*
X225373143Y-89913546D01*
X225452000Y-89517104D01*
X225452000Y-89112896D01*
X225373143Y-88716454D01*
X225218459Y-88343013D01*
X224993893Y-88006926D01*
X224708074Y-87721107D01*
X224371987Y-87496541D01*
X223998546Y-87341857D01*
X223602104Y-87263000D01*
X223197896Y-87263000D01*
X222801454Y-87341857D01*
X222428013Y-87496541D01*
X222091926Y-87721107D01*
X221806107Y-88006926D01*
X221581541Y-88343013D01*
X221426857Y-88716454D01*
X221348000Y-89112896D01*
X191863093Y-89112896D01*
X191542109Y-87949839D01*
X191228914Y-86223992D01*
X191216215Y-86082894D01*
X209411000Y-86082894D01*
X209411000Y-86317106D01*
X209456693Y-86546818D01*
X209546322Y-86763203D01*
X209676443Y-86957943D01*
X209842057Y-87123557D01*
X210036797Y-87253678D01*
X210253182Y-87343307D01*
X210482894Y-87389000D01*
X210717106Y-87389000D01*
X210946818Y-87343307D01*
X211163203Y-87253678D01*
X211357943Y-87123557D01*
X211523557Y-86957943D01*
X211653678Y-86763203D01*
X211743307Y-86546818D01*
X211789000Y-86317106D01*
X211789000Y-86082894D01*
X211743307Y-85853182D01*
X211653678Y-85636797D01*
X211523557Y-85442057D01*
X211357943Y-85276443D01*
X211163203Y-85146322D01*
X210946818Y-85056693D01*
X210717106Y-85011000D01*
X210482894Y-85011000D01*
X210253182Y-85056693D01*
X210036797Y-85146322D01*
X209842057Y-85276443D01*
X209676443Y-85442057D01*
X209546322Y-85636797D01*
X209456693Y-85853182D01*
X209411000Y-86082894D01*
X191216215Y-86082894D01*
X191071684Y-84477018D01*
X191071684Y-83542894D01*
X206811000Y-83542894D01*
X206811000Y-83777106D01*
X206856693Y-84006818D01*
X206946322Y-84223203D01*
X207076443Y-84417943D01*
X207242057Y-84583557D01*
X207436797Y-84713678D01*
X207653182Y-84803307D01*
X207882894Y-84849000D01*
X208117106Y-84849000D01*
X208346818Y-84803307D01*
X208563203Y-84713678D01*
X208757943Y-84583557D01*
X208923557Y-84417943D01*
X209053678Y-84223203D01*
X209143307Y-84006818D01*
X209189000Y-83777106D01*
X209189000Y-83542894D01*
X209143307Y-83313182D01*
X209053678Y-83096797D01*
X208923557Y-82902057D01*
X208757943Y-82736443D01*
X208563203Y-82606322D01*
X208346818Y-82516693D01*
X208117106Y-82471000D01*
X207882894Y-82471000D01*
X207653182Y-82516693D01*
X207436797Y-82606322D01*
X207242057Y-82736443D01*
X207076443Y-82902057D01*
X206946322Y-83096797D01*
X206856693Y-83313182D01*
X206811000Y-83542894D01*
X191071684Y-83542894D01*
X191071684Y-82722982D01*
X191228294Y-80982894D01*
X209411000Y-80982894D01*
X209411000Y-81217106D01*
X209456693Y-81446818D01*
X209546322Y-81663203D01*
X209676443Y-81857943D01*
X209842057Y-82023557D01*
X210036797Y-82153678D01*
X210253182Y-82243307D01*
X210482894Y-82289000D01*
X210717106Y-82289000D01*
X210946818Y-82243307D01*
X211163203Y-82153678D01*
X211357943Y-82023557D01*
X211523557Y-81857943D01*
X211653678Y-81663203D01*
X211743307Y-81446818D01*
X211789000Y-81217106D01*
X211789000Y-80982894D01*
X211743307Y-80753182D01*
X211653678Y-80536797D01*
X211539556Y-80366000D01*
X215032928Y-80366000D01*
X215036000Y-80779250D01*
X215194750Y-80938000D01*
X216243000Y-80938000D01*
X216243000Y-79889750D01*
X216084250Y-79731000D01*
X215671000Y-79727928D01*
X215546518Y-79740188D01*
X215426820Y-79776498D01*
X215316506Y-79835463D01*
X215219815Y-79914815D01*
X215140463Y-80011506D01*
X215081498Y-80121820D01*
X215045188Y-80241518D01*
X215032928Y-80366000D01*
X211539556Y-80366000D01*
X211523557Y-80342057D01*
X211357943Y-80176443D01*
X211163203Y-80046322D01*
X210946818Y-79956693D01*
X210717106Y-79911000D01*
X210482894Y-79911000D01*
X210253182Y-79956693D01*
X210036797Y-80046322D01*
X209842057Y-80176443D01*
X209676443Y-80342057D01*
X209546322Y-80536797D01*
X209456693Y-80753182D01*
X209411000Y-80982894D01*
X191228294Y-80982894D01*
X191228914Y-80976008D01*
X191542109Y-79250161D01*
X191974646Y-77682896D01*
X221348000Y-77682896D01*
X221348000Y-78087104D01*
X221426857Y-78483546D01*
X221581541Y-78856987D01*
X221806107Y-79193074D01*
X222091926Y-79478893D01*
X222428013Y-79703459D01*
X222801454Y-79858143D01*
X223197896Y-79937000D01*
X223602104Y-79937000D01*
X223998546Y-79858143D01*
X224371987Y-79703459D01*
X224708074Y-79478893D01*
X224993893Y-79193074D01*
X225218459Y-78856987D01*
X225373143Y-78483546D01*
X225452000Y-78087104D01*
X225452000Y-77682896D01*
X225373143Y-77286454D01*
X225218459Y-76913013D01*
X224993893Y-76576926D01*
X224708074Y-76291107D01*
X224371987Y-76066541D01*
X223998546Y-75911857D01*
X223602104Y-75833000D01*
X223197896Y-75833000D01*
X222801454Y-75911857D01*
X222428013Y-76066541D01*
X222091926Y-76291107D01*
X221806107Y-76576926D01*
X221581541Y-76913013D01*
X221426857Y-77286454D01*
X221348000Y-77682896D01*
X191974646Y-77682896D01*
X192008747Y-77559336D01*
X192625071Y-75917147D01*
X193386119Y-74336815D01*
X194285762Y-72831066D01*
X195316758Y-71412021D01*
X196470806Y-70091107D01*
X197738614Y-68878959D01*
X199109974Y-67785336D01*
X200573845Y-66819043D01*
X202118441Y-65987861D01*
X203731325Y-65298481D01*
X205399512Y-64756454D01*
X207109570Y-64366144D01*
X208847731Y-64130695D01*
X210600000Y-64052000D01*
X212352269Y-64130695D01*
G37*
%TD.AperFunction*%
%TD*%
M02*
