M48
; DRILL file {KiCad (5.1.8-0-10_14)} date Thursday, March 11, 2021 at 09:37:01 AM
; FORMAT={-:-/ absolute / inch / decimal}
; #@! TF.CreationDate,2021-03-11T09:37:01+11:00
; #@! TF.GenerationSoftware,Kicad,Pcbnew,(5.1.8-0-10_14)
; #@! TF.FileFunction,Plated,1,2,PTH
FMAT,2
INCH
T1C0.0350
T2C0.0433
T3C0.0618
T4C0.1260
%
G90
G05
T1
X5.735Y-3.2427
X5.735Y-3.3226
X5.735Y-3.4026
X5.735Y-3.4825
X5.815Y-3.2026
X5.815Y-3.2825
X5.815Y-3.3624
X5.815Y-3.4423
T2
X5.078Y-3.774
X5.078Y-4.374
X5.178Y-3.774
X5.178Y-4.374
X5.278Y-3.774
X5.278Y-4.374
X5.378Y-3.774
X5.378Y-4.374
X5.478Y-3.774
X5.478Y-4.374
X5.578Y-3.774
X5.578Y-4.374
X5.678Y-3.774
X5.678Y-4.374
X5.778Y-3.774
X5.778Y-4.374
X5.878Y-3.774
X5.878Y-4.374
X5.978Y-3.774
X5.978Y-4.374
X6.078Y-3.774
X6.078Y-4.374
X6.178Y-3.774
X6.178Y-4.374
X6.278Y-3.774
X6.278Y-4.374
X6.378Y-3.774
X6.378Y-3.874
X6.378Y-3.974
X6.378Y-4.074
X6.378Y-4.174
X6.378Y-4.274
X6.378Y-4.374
T3
X6.15Y-3.0354
X6.15Y-3.6496
T4
X5.1496Y-3.0984
T0
M30
