%TF.GenerationSoftware,KiCad,Pcbnew,(5.1.8-0-10_14)*%
%TF.CreationDate,2021-03-11T09:37:04+11:00*%
%TF.ProjectId,Controller,436f6e74-726f-46c6-9c65-722e6b696361,rev?*%
%TF.SameCoordinates,Original*%
%TF.FileFunction,Soldermask,Top*%
%TF.FilePolarity,Negative*%
%FSLAX46Y46*%
G04 Gerber Fmt 4.6, Leading zero omitted, Abs format (unit mm)*
G04 Created by KiCad (PCBNEW (5.1.8-0-10_14)) date 2021-03-11 09:37:04*
%MOMM*%
%LPD*%
G01*
G04 APERTURE LIST*
%ADD10R,1.398000X1.398000*%
%ADD11C,1.398000*%
%ADD12C,3.250000*%
%ADD13C,2.355000*%
%ADD14C,1.600000*%
%ADD15R,1.600000X1.600000*%
%ADD16C,5.600000*%
G04 APERTURE END LIST*
D10*
%TO.C,J2*%
X145670000Y-82365000D03*
D11*
X147700000Y-81345000D03*
X147700000Y-83375000D03*
X147700000Y-85405000D03*
X145670000Y-84395000D03*
X145670000Y-86425000D03*
X145670000Y-88455000D03*
X147700000Y-87435000D03*
D12*
X152700000Y-90615000D03*
X152700000Y-79185000D03*
D13*
X156210000Y-92700000D03*
X156210000Y-77100000D03*
%TD*%
D14*
%TO.C,U2*%
X162000000Y-103480000D03*
X162000000Y-100940000D03*
X162000000Y-98400000D03*
X162000000Y-95860000D03*
X162000000Y-106020000D03*
X162000000Y-108560000D03*
X162000000Y-111100000D03*
X159460000Y-95860000D03*
X156920000Y-95860000D03*
X154380000Y-95860000D03*
X151840000Y-95860000D03*
X149300000Y-95860000D03*
X146760000Y-95860000D03*
X144220000Y-95860000D03*
X141680000Y-95860000D03*
X139140000Y-95860000D03*
X136600000Y-95860000D03*
X134060000Y-95860000D03*
X131520000Y-95860000D03*
X128980000Y-95860000D03*
X159460000Y-111100000D03*
X156920000Y-111100000D03*
X154380000Y-111100000D03*
X151840000Y-111100000D03*
X149300000Y-111100000D03*
X146760000Y-111100000D03*
X144220000Y-111100000D03*
X141680000Y-111100000D03*
X139140000Y-111100000D03*
X136600000Y-111100000D03*
X134060000Y-111100000D03*
X131520000Y-111100000D03*
D15*
X128980000Y-111100000D03*
%TD*%
D16*
%TO.C,REF\u002A\u002A*%
X130800000Y-78700000D03*
%TD*%
M02*
