%TF.GenerationSoftware,KiCad,Pcbnew,(5.1.8-0-10_14)*%
%TF.CreationDate,2021-03-11T09:37:04+11:00*%
%TF.ProjectId,Controller,436f6e74-726f-46c6-9c65-722e6b696361,rev?*%
%TF.SameCoordinates,Original*%
%TF.FileFunction,Copper,L2,Bot*%
%TF.FilePolarity,Positive*%
%FSLAX46Y46*%
G04 Gerber Fmt 4.6, Leading zero omitted, Abs format (unit mm)*
G04 Created by KiCad (PCBNEW (5.1.8-0-10_14)) date 2021-03-11 09:37:04*
%MOMM*%
%LPD*%
G01*
G04 APERTURE LIST*
%TA.AperFunction,ComponentPad*%
%ADD10R,1.398000X1.398000*%
%TD*%
%TA.AperFunction,ComponentPad*%
%ADD11C,1.398000*%
%TD*%
%TA.AperFunction,ComponentPad*%
%ADD12C,2.355000*%
%TD*%
%TA.AperFunction,ComponentPad*%
%ADD13C,1.600000*%
%TD*%
%TA.AperFunction,ComponentPad*%
%ADD14R,1.600000X1.600000*%
%TD*%
%TA.AperFunction,ComponentPad*%
%ADD15C,5.600000*%
%TD*%
%TA.AperFunction,NonConductor*%
%ADD16C,0.254000*%
%TD*%
%TA.AperFunction,NonConductor*%
%ADD17C,0.100000*%
%TD*%
G04 APERTURE END LIST*
D10*
%TO.P,J2,1*%
%TO.N,N/C*%
X145670000Y-82365000D03*
D11*
%TO.P,J2,2*%
X147700000Y-81345000D03*
%TO.P,J2,3*%
X147700000Y-83375000D03*
%TO.P,J2,4*%
X147700000Y-85405000D03*
%TO.P,J2,5*%
X145670000Y-84395000D03*
%TO.P,J2,6*%
X145670000Y-86425000D03*
%TO.P,J2,7*%
X145670000Y-88455000D03*
%TO.P,J2,8*%
X147700000Y-87435000D03*
D12*
%TO.P,J2,S1*%
X156210000Y-92700000D03*
%TO.P,J2,S2*%
X156210000Y-77100000D03*
%TD*%
D13*
%TO.P,U2,17*%
%TO.N,N/C*%
X162000000Y-103480000D03*
%TO.P,U2,18*%
X162000000Y-100940000D03*
%TO.P,U2,19*%
X162000000Y-98400000D03*
%TO.P,U2,20*%
X162000000Y-95860000D03*
%TO.P,U2,16*%
X162000000Y-106020000D03*
%TO.P,U2,15*%
X162000000Y-108560000D03*
%TO.P,U2,14*%
X162000000Y-111100000D03*
%TO.P,U2,21*%
X159460000Y-95860000D03*
%TO.P,U2,22*%
X156920000Y-95860000D03*
%TO.P,U2,23*%
X154380000Y-95860000D03*
%TO.P,U2,24*%
X151840000Y-95860000D03*
%TO.P,U2,25*%
X149300000Y-95860000D03*
%TO.P,U2,26*%
X146760000Y-95860000D03*
%TO.P,U2,27*%
X144220000Y-95860000D03*
%TO.P,U2,28*%
X141680000Y-95860000D03*
%TO.P,U2,29*%
X139140000Y-95860000D03*
%TO.P,U2,30*%
X136600000Y-95860000D03*
%TO.P,U2,31*%
X134060000Y-95860000D03*
%TO.P,U2,32*%
X131520000Y-95860000D03*
%TO.P,U2,33*%
X128980000Y-95860000D03*
%TO.P,U2,13*%
X159460000Y-111100000D03*
%TO.P,U2,12*%
X156920000Y-111100000D03*
%TO.P,U2,11*%
X154380000Y-111100000D03*
%TO.P,U2,10*%
X151840000Y-111100000D03*
%TO.P,U2,9*%
X149300000Y-111100000D03*
%TO.P,U2,8*%
X146760000Y-111100000D03*
%TO.P,U2,7*%
X144220000Y-111100000D03*
%TO.P,U2,6*%
X141680000Y-111100000D03*
%TO.P,U2,5*%
X139140000Y-111100000D03*
%TO.P,U2,4*%
X136600000Y-111100000D03*
%TO.P,U2,3*%
X134060000Y-111100000D03*
%TO.P,U2,2*%
X131520000Y-111100000D03*
D14*
%TO.P,U2,1*%
X128980000Y-111100000D03*
%TD*%
D15*
%TO.P,REF\u002A\u002A,1*%
%TO.N,N/C*%
X130800000Y-78700000D03*
%TD*%
D16*
X158345363Y-112014759D02*
X158370604Y-112040000D01*
X158009396Y-112040000D01*
X158034637Y-112014759D01*
X158190000Y-111782241D01*
X158345363Y-112014759D01*
%TA.AperFunction,NonConductor*%
D17*
G36*
X158345363Y-112014759D02*
G01*
X158370604Y-112040000D01*
X158009396Y-112040000D01*
X158034637Y-112014759D01*
X158190000Y-111782241D01*
X158345363Y-112014759D01*
G37*
%TD.AperFunction*%
D16*
X155805363Y-112014759D02*
X155830604Y-112040000D01*
X155469396Y-112040000D01*
X155494637Y-112014759D01*
X155650000Y-111782241D01*
X155805363Y-112014759D01*
%TA.AperFunction,NonConductor*%
D17*
G36*
X155805363Y-112014759D02*
G01*
X155830604Y-112040000D01*
X155469396Y-112040000D01*
X155494637Y-112014759D01*
X155650000Y-111782241D01*
X155805363Y-112014759D01*
G37*
%TD.AperFunction*%
D16*
X160885363Y-112014759D02*
X160910604Y-112040000D01*
X160549396Y-112040000D01*
X160574637Y-112014759D01*
X160730000Y-111782241D01*
X160885363Y-112014759D01*
%TA.AperFunction,NonConductor*%
D17*
G36*
X160885363Y-112014759D02*
G01*
X160910604Y-112040000D01*
X160549396Y-112040000D01*
X160574637Y-112014759D01*
X160730000Y-111782241D01*
X160885363Y-112014759D01*
G37*
%TD.AperFunction*%
D16*
X130430604Y-112040000D02*
X130401105Y-112040000D01*
X130405812Y-112024482D01*
X130406643Y-112016039D01*
X130430604Y-112040000D01*
%TA.AperFunction,NonConductor*%
D17*
G36*
X130430604Y-112040000D02*
G01*
X130401105Y-112040000D01*
X130405812Y-112024482D01*
X130406643Y-112016039D01*
X130430604Y-112040000D01*
G37*
%TD.AperFunction*%
D16*
X132945363Y-112014759D02*
X132970604Y-112040000D01*
X132609396Y-112040000D01*
X132634637Y-112014759D01*
X132790000Y-111782241D01*
X132945363Y-112014759D01*
%TA.AperFunction,NonConductor*%
D17*
G36*
X132945363Y-112014759D02*
G01*
X132970604Y-112040000D01*
X132609396Y-112040000D01*
X132634637Y-112014759D01*
X132790000Y-111782241D01*
X132945363Y-112014759D01*
G37*
%TD.AperFunction*%
D16*
X135485363Y-112014759D02*
X135510604Y-112040000D01*
X135149396Y-112040000D01*
X135174637Y-112014759D01*
X135330000Y-111782241D01*
X135485363Y-112014759D01*
%TA.AperFunction,NonConductor*%
D17*
G36*
X135485363Y-112014759D02*
G01*
X135510604Y-112040000D01*
X135149396Y-112040000D01*
X135174637Y-112014759D01*
X135330000Y-111782241D01*
X135485363Y-112014759D01*
G37*
%TD.AperFunction*%
D16*
X138025363Y-112014759D02*
X138050604Y-112040000D01*
X137689396Y-112040000D01*
X137714637Y-112014759D01*
X137870000Y-111782241D01*
X138025363Y-112014759D01*
%TA.AperFunction,NonConductor*%
D17*
G36*
X138025363Y-112014759D02*
G01*
X138050604Y-112040000D01*
X137689396Y-112040000D01*
X137714637Y-112014759D01*
X137870000Y-111782241D01*
X138025363Y-112014759D01*
G37*
%TD.AperFunction*%
D16*
X140565363Y-112014759D02*
X140590604Y-112040000D01*
X140229396Y-112040000D01*
X140254637Y-112014759D01*
X140410000Y-111782241D01*
X140565363Y-112014759D01*
%TA.AperFunction,NonConductor*%
D17*
G36*
X140565363Y-112014759D02*
G01*
X140590604Y-112040000D01*
X140229396Y-112040000D01*
X140254637Y-112014759D01*
X140410000Y-111782241D01*
X140565363Y-112014759D01*
G37*
%TD.AperFunction*%
D16*
X143105363Y-112014759D02*
X143130604Y-112040000D01*
X142769396Y-112040000D01*
X142794637Y-112014759D01*
X142950000Y-111782241D01*
X143105363Y-112014759D01*
%TA.AperFunction,NonConductor*%
D17*
G36*
X143105363Y-112014759D02*
G01*
X143130604Y-112040000D01*
X142769396Y-112040000D01*
X142794637Y-112014759D01*
X142950000Y-111782241D01*
X143105363Y-112014759D01*
G37*
%TD.AperFunction*%
D16*
X145645363Y-112014759D02*
X145670604Y-112040000D01*
X145309396Y-112040000D01*
X145334637Y-112014759D01*
X145490000Y-111782241D01*
X145645363Y-112014759D01*
%TA.AperFunction,NonConductor*%
D17*
G36*
X145645363Y-112014759D02*
G01*
X145670604Y-112040000D01*
X145309396Y-112040000D01*
X145334637Y-112014759D01*
X145490000Y-111782241D01*
X145645363Y-112014759D01*
G37*
%TD.AperFunction*%
D16*
X148185363Y-112014759D02*
X148210604Y-112040000D01*
X147849396Y-112040000D01*
X147874637Y-112014759D01*
X148030000Y-111782241D01*
X148185363Y-112014759D01*
%TA.AperFunction,NonConductor*%
D17*
G36*
X148185363Y-112014759D02*
G01*
X148210604Y-112040000D01*
X147849396Y-112040000D01*
X147874637Y-112014759D01*
X148030000Y-111782241D01*
X148185363Y-112014759D01*
G37*
%TD.AperFunction*%
D16*
X150725363Y-112014759D02*
X150750604Y-112040000D01*
X150389396Y-112040000D01*
X150414637Y-112014759D01*
X150570000Y-111782241D01*
X150725363Y-112014759D01*
%TA.AperFunction,NonConductor*%
D17*
G36*
X150725363Y-112014759D02*
G01*
X150750604Y-112040000D01*
X150389396Y-112040000D01*
X150414637Y-112014759D01*
X150570000Y-111782241D01*
X150725363Y-112014759D01*
G37*
%TD.AperFunction*%
D16*
X153265363Y-112014759D02*
X153290604Y-112040000D01*
X152929396Y-112040000D01*
X152954637Y-112014759D01*
X153110000Y-111782241D01*
X153265363Y-112014759D01*
%TA.AperFunction,NonConductor*%
D17*
G36*
X153265363Y-112014759D02*
G01*
X153290604Y-112040000D01*
X152929396Y-112040000D01*
X152954637Y-112014759D01*
X153110000Y-111782241D01*
X153265363Y-112014759D01*
G37*
%TD.AperFunction*%
D16*
X160885363Y-96774759D02*
X161085241Y-96974637D01*
X161317759Y-97130000D01*
X161085241Y-97285363D01*
X160885363Y-97485241D01*
X160728320Y-97720273D01*
X160620147Y-97981426D01*
X160565000Y-98258665D01*
X160565000Y-98541335D01*
X160620147Y-98818574D01*
X160728320Y-99079727D01*
X160885363Y-99314759D01*
X161085241Y-99514637D01*
X161317759Y-99670000D01*
X161085241Y-99825363D01*
X160885363Y-100025241D01*
X160728320Y-100260273D01*
X160620147Y-100521426D01*
X160565000Y-100798665D01*
X160565000Y-101081335D01*
X160620147Y-101358574D01*
X160728320Y-101619727D01*
X160885363Y-101854759D01*
X161085241Y-102054637D01*
X161317759Y-102210000D01*
X161085241Y-102365363D01*
X160885363Y-102565241D01*
X160728320Y-102800273D01*
X160620147Y-103061426D01*
X160565000Y-103338665D01*
X160565000Y-103621335D01*
X160620147Y-103898574D01*
X160728320Y-104159727D01*
X160885363Y-104394759D01*
X161085241Y-104594637D01*
X161317759Y-104750000D01*
X161085241Y-104905363D01*
X160885363Y-105105241D01*
X160728320Y-105340273D01*
X160620147Y-105601426D01*
X160565000Y-105878665D01*
X160565000Y-106161335D01*
X160620147Y-106438574D01*
X160728320Y-106699727D01*
X160885363Y-106934759D01*
X161085241Y-107134637D01*
X161317759Y-107290000D01*
X161085241Y-107445363D01*
X160885363Y-107645241D01*
X160728320Y-107880273D01*
X160620147Y-108141426D01*
X160565000Y-108418665D01*
X160565000Y-108701335D01*
X160620147Y-108978574D01*
X160728320Y-109239727D01*
X160885363Y-109474759D01*
X161085241Y-109674637D01*
X161317759Y-109830000D01*
X161085241Y-109985363D01*
X160885363Y-110185241D01*
X160730000Y-110417759D01*
X160574637Y-110185241D01*
X160374759Y-109985363D01*
X160139727Y-109828320D01*
X159878574Y-109720147D01*
X159601335Y-109665000D01*
X159318665Y-109665000D01*
X159041426Y-109720147D01*
X158780273Y-109828320D01*
X158545241Y-109985363D01*
X158345363Y-110185241D01*
X158190000Y-110417759D01*
X158034637Y-110185241D01*
X157834759Y-109985363D01*
X157599727Y-109828320D01*
X157338574Y-109720147D01*
X157061335Y-109665000D01*
X156778665Y-109665000D01*
X156501426Y-109720147D01*
X156240273Y-109828320D01*
X156005241Y-109985363D01*
X155805363Y-110185241D01*
X155650000Y-110417759D01*
X155494637Y-110185241D01*
X155294759Y-109985363D01*
X155059727Y-109828320D01*
X154798574Y-109720147D01*
X154521335Y-109665000D01*
X154238665Y-109665000D01*
X153961426Y-109720147D01*
X153700273Y-109828320D01*
X153465241Y-109985363D01*
X153265363Y-110185241D01*
X153110000Y-110417759D01*
X152954637Y-110185241D01*
X152754759Y-109985363D01*
X152519727Y-109828320D01*
X152258574Y-109720147D01*
X151981335Y-109665000D01*
X151698665Y-109665000D01*
X151421426Y-109720147D01*
X151160273Y-109828320D01*
X150925241Y-109985363D01*
X150725363Y-110185241D01*
X150570000Y-110417759D01*
X150414637Y-110185241D01*
X150214759Y-109985363D01*
X149979727Y-109828320D01*
X149718574Y-109720147D01*
X149441335Y-109665000D01*
X149158665Y-109665000D01*
X148881426Y-109720147D01*
X148620273Y-109828320D01*
X148385241Y-109985363D01*
X148185363Y-110185241D01*
X148030000Y-110417759D01*
X147874637Y-110185241D01*
X147674759Y-109985363D01*
X147439727Y-109828320D01*
X147178574Y-109720147D01*
X146901335Y-109665000D01*
X146618665Y-109665000D01*
X146341426Y-109720147D01*
X146080273Y-109828320D01*
X145845241Y-109985363D01*
X145645363Y-110185241D01*
X145490000Y-110417759D01*
X145334637Y-110185241D01*
X145134759Y-109985363D01*
X144899727Y-109828320D01*
X144638574Y-109720147D01*
X144361335Y-109665000D01*
X144078665Y-109665000D01*
X143801426Y-109720147D01*
X143540273Y-109828320D01*
X143305241Y-109985363D01*
X143105363Y-110185241D01*
X142950000Y-110417759D01*
X142794637Y-110185241D01*
X142594759Y-109985363D01*
X142359727Y-109828320D01*
X142098574Y-109720147D01*
X141821335Y-109665000D01*
X141538665Y-109665000D01*
X141261426Y-109720147D01*
X141000273Y-109828320D01*
X140765241Y-109985363D01*
X140565363Y-110185241D01*
X140410000Y-110417759D01*
X140254637Y-110185241D01*
X140054759Y-109985363D01*
X139819727Y-109828320D01*
X139558574Y-109720147D01*
X139281335Y-109665000D01*
X138998665Y-109665000D01*
X138721426Y-109720147D01*
X138460273Y-109828320D01*
X138225241Y-109985363D01*
X138025363Y-110185241D01*
X137870000Y-110417759D01*
X137714637Y-110185241D01*
X137514759Y-109985363D01*
X137279727Y-109828320D01*
X137018574Y-109720147D01*
X136741335Y-109665000D01*
X136458665Y-109665000D01*
X136181426Y-109720147D01*
X135920273Y-109828320D01*
X135685241Y-109985363D01*
X135485363Y-110185241D01*
X135330000Y-110417759D01*
X135174637Y-110185241D01*
X134974759Y-109985363D01*
X134739727Y-109828320D01*
X134478574Y-109720147D01*
X134201335Y-109665000D01*
X133918665Y-109665000D01*
X133641426Y-109720147D01*
X133380273Y-109828320D01*
X133145241Y-109985363D01*
X132945363Y-110185241D01*
X132790000Y-110417759D01*
X132634637Y-110185241D01*
X132434759Y-109985363D01*
X132199727Y-109828320D01*
X131938574Y-109720147D01*
X131661335Y-109665000D01*
X131378665Y-109665000D01*
X131101426Y-109720147D01*
X130840273Y-109828320D01*
X130605241Y-109985363D01*
X130406643Y-110183961D01*
X130405812Y-110175518D01*
X130369502Y-110055820D01*
X130310537Y-109945506D01*
X130231185Y-109848815D01*
X130134494Y-109769463D01*
X130024180Y-109710498D01*
X129904482Y-109674188D01*
X129780000Y-109661928D01*
X128180000Y-109661928D01*
X128060000Y-109673747D01*
X128060000Y-96969396D01*
X128065241Y-96974637D01*
X128300273Y-97131680D01*
X128561426Y-97239853D01*
X128838665Y-97295000D01*
X129121335Y-97295000D01*
X129398574Y-97239853D01*
X129659727Y-97131680D01*
X129894759Y-96974637D01*
X130094637Y-96774759D01*
X130250000Y-96542241D01*
X130405363Y-96774759D01*
X130605241Y-96974637D01*
X130840273Y-97131680D01*
X131101426Y-97239853D01*
X131378665Y-97295000D01*
X131661335Y-97295000D01*
X131938574Y-97239853D01*
X132199727Y-97131680D01*
X132434759Y-96974637D01*
X132634637Y-96774759D01*
X132790000Y-96542241D01*
X132945363Y-96774759D01*
X133145241Y-96974637D01*
X133380273Y-97131680D01*
X133641426Y-97239853D01*
X133918665Y-97295000D01*
X134201335Y-97295000D01*
X134478574Y-97239853D01*
X134739727Y-97131680D01*
X134974759Y-96974637D01*
X135174637Y-96774759D01*
X135330000Y-96542241D01*
X135485363Y-96774759D01*
X135685241Y-96974637D01*
X135920273Y-97131680D01*
X136181426Y-97239853D01*
X136458665Y-97295000D01*
X136741335Y-97295000D01*
X137018574Y-97239853D01*
X137279727Y-97131680D01*
X137514759Y-96974637D01*
X137714637Y-96774759D01*
X137870000Y-96542241D01*
X138025363Y-96774759D01*
X138225241Y-96974637D01*
X138460273Y-97131680D01*
X138721426Y-97239853D01*
X138998665Y-97295000D01*
X139281335Y-97295000D01*
X139558574Y-97239853D01*
X139819727Y-97131680D01*
X140054759Y-96974637D01*
X140254637Y-96774759D01*
X140410000Y-96542241D01*
X140565363Y-96774759D01*
X140765241Y-96974637D01*
X141000273Y-97131680D01*
X141261426Y-97239853D01*
X141538665Y-97295000D01*
X141821335Y-97295000D01*
X142098574Y-97239853D01*
X142359727Y-97131680D01*
X142594759Y-96974637D01*
X142794637Y-96774759D01*
X142950000Y-96542241D01*
X143105363Y-96774759D01*
X143305241Y-96974637D01*
X143540273Y-97131680D01*
X143801426Y-97239853D01*
X144078665Y-97295000D01*
X144361335Y-97295000D01*
X144638574Y-97239853D01*
X144899727Y-97131680D01*
X145134759Y-96974637D01*
X145334637Y-96774759D01*
X145490000Y-96542241D01*
X145645363Y-96774759D01*
X145845241Y-96974637D01*
X146080273Y-97131680D01*
X146341426Y-97239853D01*
X146618665Y-97295000D01*
X146901335Y-97295000D01*
X147178574Y-97239853D01*
X147439727Y-97131680D01*
X147674759Y-96974637D01*
X147874637Y-96774759D01*
X148030000Y-96542241D01*
X148185363Y-96774759D01*
X148385241Y-96974637D01*
X148620273Y-97131680D01*
X148881426Y-97239853D01*
X149158665Y-97295000D01*
X149441335Y-97295000D01*
X149718574Y-97239853D01*
X149979727Y-97131680D01*
X150214759Y-96974637D01*
X150414637Y-96774759D01*
X150570000Y-96542241D01*
X150725363Y-96774759D01*
X150925241Y-96974637D01*
X151160273Y-97131680D01*
X151421426Y-97239853D01*
X151698665Y-97295000D01*
X151981335Y-97295000D01*
X152258574Y-97239853D01*
X152519727Y-97131680D01*
X152754759Y-96974637D01*
X152954637Y-96774759D01*
X153110000Y-96542241D01*
X153265363Y-96774759D01*
X153465241Y-96974637D01*
X153700273Y-97131680D01*
X153961426Y-97239853D01*
X154238665Y-97295000D01*
X154521335Y-97295000D01*
X154798574Y-97239853D01*
X155059727Y-97131680D01*
X155294759Y-96974637D01*
X155494637Y-96774759D01*
X155650000Y-96542241D01*
X155805363Y-96774759D01*
X156005241Y-96974637D01*
X156240273Y-97131680D01*
X156501426Y-97239853D01*
X156778665Y-97295000D01*
X157061335Y-97295000D01*
X157338574Y-97239853D01*
X157599727Y-97131680D01*
X157834759Y-96974637D01*
X158034637Y-96774759D01*
X158190000Y-96542241D01*
X158345363Y-96774759D01*
X158545241Y-96974637D01*
X158780273Y-97131680D01*
X159041426Y-97239853D01*
X159318665Y-97295000D01*
X159601335Y-97295000D01*
X159878574Y-97239853D01*
X160139727Y-97131680D01*
X160374759Y-96974637D01*
X160574637Y-96774759D01*
X160730000Y-96542241D01*
X160885363Y-96774759D01*
%TA.AperFunction,NonConductor*%
D17*
G36*
X160885363Y-96774759D02*
G01*
X161085241Y-96974637D01*
X161317759Y-97130000D01*
X161085241Y-97285363D01*
X160885363Y-97485241D01*
X160728320Y-97720273D01*
X160620147Y-97981426D01*
X160565000Y-98258665D01*
X160565000Y-98541335D01*
X160620147Y-98818574D01*
X160728320Y-99079727D01*
X160885363Y-99314759D01*
X161085241Y-99514637D01*
X161317759Y-99670000D01*
X161085241Y-99825363D01*
X160885363Y-100025241D01*
X160728320Y-100260273D01*
X160620147Y-100521426D01*
X160565000Y-100798665D01*
X160565000Y-101081335D01*
X160620147Y-101358574D01*
X160728320Y-101619727D01*
X160885363Y-101854759D01*
X161085241Y-102054637D01*
X161317759Y-102210000D01*
X161085241Y-102365363D01*
X160885363Y-102565241D01*
X160728320Y-102800273D01*
X160620147Y-103061426D01*
X160565000Y-103338665D01*
X160565000Y-103621335D01*
X160620147Y-103898574D01*
X160728320Y-104159727D01*
X160885363Y-104394759D01*
X161085241Y-104594637D01*
X161317759Y-104750000D01*
X161085241Y-104905363D01*
X160885363Y-105105241D01*
X160728320Y-105340273D01*
X160620147Y-105601426D01*
X160565000Y-105878665D01*
X160565000Y-106161335D01*
X160620147Y-106438574D01*
X160728320Y-106699727D01*
X160885363Y-106934759D01*
X161085241Y-107134637D01*
X161317759Y-107290000D01*
X161085241Y-107445363D01*
X160885363Y-107645241D01*
X160728320Y-107880273D01*
X160620147Y-108141426D01*
X160565000Y-108418665D01*
X160565000Y-108701335D01*
X160620147Y-108978574D01*
X160728320Y-109239727D01*
X160885363Y-109474759D01*
X161085241Y-109674637D01*
X161317759Y-109830000D01*
X161085241Y-109985363D01*
X160885363Y-110185241D01*
X160730000Y-110417759D01*
X160574637Y-110185241D01*
X160374759Y-109985363D01*
X160139727Y-109828320D01*
X159878574Y-109720147D01*
X159601335Y-109665000D01*
X159318665Y-109665000D01*
X159041426Y-109720147D01*
X158780273Y-109828320D01*
X158545241Y-109985363D01*
X158345363Y-110185241D01*
X158190000Y-110417759D01*
X158034637Y-110185241D01*
X157834759Y-109985363D01*
X157599727Y-109828320D01*
X157338574Y-109720147D01*
X157061335Y-109665000D01*
X156778665Y-109665000D01*
X156501426Y-109720147D01*
X156240273Y-109828320D01*
X156005241Y-109985363D01*
X155805363Y-110185241D01*
X155650000Y-110417759D01*
X155494637Y-110185241D01*
X155294759Y-109985363D01*
X155059727Y-109828320D01*
X154798574Y-109720147D01*
X154521335Y-109665000D01*
X154238665Y-109665000D01*
X153961426Y-109720147D01*
X153700273Y-109828320D01*
X153465241Y-109985363D01*
X153265363Y-110185241D01*
X153110000Y-110417759D01*
X152954637Y-110185241D01*
X152754759Y-109985363D01*
X152519727Y-109828320D01*
X152258574Y-109720147D01*
X151981335Y-109665000D01*
X151698665Y-109665000D01*
X151421426Y-109720147D01*
X151160273Y-109828320D01*
X150925241Y-109985363D01*
X150725363Y-110185241D01*
X150570000Y-110417759D01*
X150414637Y-110185241D01*
X150214759Y-109985363D01*
X149979727Y-109828320D01*
X149718574Y-109720147D01*
X149441335Y-109665000D01*
X149158665Y-109665000D01*
X148881426Y-109720147D01*
X148620273Y-109828320D01*
X148385241Y-109985363D01*
X148185363Y-110185241D01*
X148030000Y-110417759D01*
X147874637Y-110185241D01*
X147674759Y-109985363D01*
X147439727Y-109828320D01*
X147178574Y-109720147D01*
X146901335Y-109665000D01*
X146618665Y-109665000D01*
X146341426Y-109720147D01*
X146080273Y-109828320D01*
X145845241Y-109985363D01*
X145645363Y-110185241D01*
X145490000Y-110417759D01*
X145334637Y-110185241D01*
X145134759Y-109985363D01*
X144899727Y-109828320D01*
X144638574Y-109720147D01*
X144361335Y-109665000D01*
X144078665Y-109665000D01*
X143801426Y-109720147D01*
X143540273Y-109828320D01*
X143305241Y-109985363D01*
X143105363Y-110185241D01*
X142950000Y-110417759D01*
X142794637Y-110185241D01*
X142594759Y-109985363D01*
X142359727Y-109828320D01*
X142098574Y-109720147D01*
X141821335Y-109665000D01*
X141538665Y-109665000D01*
X141261426Y-109720147D01*
X141000273Y-109828320D01*
X140765241Y-109985363D01*
X140565363Y-110185241D01*
X140410000Y-110417759D01*
X140254637Y-110185241D01*
X140054759Y-109985363D01*
X139819727Y-109828320D01*
X139558574Y-109720147D01*
X139281335Y-109665000D01*
X138998665Y-109665000D01*
X138721426Y-109720147D01*
X138460273Y-109828320D01*
X138225241Y-109985363D01*
X138025363Y-110185241D01*
X137870000Y-110417759D01*
X137714637Y-110185241D01*
X137514759Y-109985363D01*
X137279727Y-109828320D01*
X137018574Y-109720147D01*
X136741335Y-109665000D01*
X136458665Y-109665000D01*
X136181426Y-109720147D01*
X135920273Y-109828320D01*
X135685241Y-109985363D01*
X135485363Y-110185241D01*
X135330000Y-110417759D01*
X135174637Y-110185241D01*
X134974759Y-109985363D01*
X134739727Y-109828320D01*
X134478574Y-109720147D01*
X134201335Y-109665000D01*
X133918665Y-109665000D01*
X133641426Y-109720147D01*
X133380273Y-109828320D01*
X133145241Y-109985363D01*
X132945363Y-110185241D01*
X132790000Y-110417759D01*
X132634637Y-110185241D01*
X132434759Y-109985363D01*
X132199727Y-109828320D01*
X131938574Y-109720147D01*
X131661335Y-109665000D01*
X131378665Y-109665000D01*
X131101426Y-109720147D01*
X130840273Y-109828320D01*
X130605241Y-109985363D01*
X130406643Y-110183961D01*
X130405812Y-110175518D01*
X130369502Y-110055820D01*
X130310537Y-109945506D01*
X130231185Y-109848815D01*
X130134494Y-109769463D01*
X130024180Y-109710498D01*
X129904482Y-109674188D01*
X129780000Y-109661928D01*
X128180000Y-109661928D01*
X128060000Y-109673747D01*
X128060000Y-96969396D01*
X128065241Y-96974637D01*
X128300273Y-97131680D01*
X128561426Y-97239853D01*
X128838665Y-97295000D01*
X129121335Y-97295000D01*
X129398574Y-97239853D01*
X129659727Y-97131680D01*
X129894759Y-96974637D01*
X130094637Y-96774759D01*
X130250000Y-96542241D01*
X130405363Y-96774759D01*
X130605241Y-96974637D01*
X130840273Y-97131680D01*
X131101426Y-97239853D01*
X131378665Y-97295000D01*
X131661335Y-97295000D01*
X131938574Y-97239853D01*
X132199727Y-97131680D01*
X132434759Y-96974637D01*
X132634637Y-96774759D01*
X132790000Y-96542241D01*
X132945363Y-96774759D01*
X133145241Y-96974637D01*
X133380273Y-97131680D01*
X133641426Y-97239853D01*
X133918665Y-97295000D01*
X134201335Y-97295000D01*
X134478574Y-97239853D01*
X134739727Y-97131680D01*
X134974759Y-96974637D01*
X135174637Y-96774759D01*
X135330000Y-96542241D01*
X135485363Y-96774759D01*
X135685241Y-96974637D01*
X135920273Y-97131680D01*
X136181426Y-97239853D01*
X136458665Y-97295000D01*
X136741335Y-97295000D01*
X137018574Y-97239853D01*
X137279727Y-97131680D01*
X137514759Y-96974637D01*
X137714637Y-96774759D01*
X137870000Y-96542241D01*
X138025363Y-96774759D01*
X138225241Y-96974637D01*
X138460273Y-97131680D01*
X138721426Y-97239853D01*
X138998665Y-97295000D01*
X139281335Y-97295000D01*
X139558574Y-97239853D01*
X139819727Y-97131680D01*
X140054759Y-96974637D01*
X140254637Y-96774759D01*
X140410000Y-96542241D01*
X140565363Y-96774759D01*
X140765241Y-96974637D01*
X141000273Y-97131680D01*
X141261426Y-97239853D01*
X141538665Y-97295000D01*
X141821335Y-97295000D01*
X142098574Y-97239853D01*
X142359727Y-97131680D01*
X142594759Y-96974637D01*
X142794637Y-96774759D01*
X142950000Y-96542241D01*
X143105363Y-96774759D01*
X143305241Y-96974637D01*
X143540273Y-97131680D01*
X143801426Y-97239853D01*
X144078665Y-97295000D01*
X144361335Y-97295000D01*
X144638574Y-97239853D01*
X144899727Y-97131680D01*
X145134759Y-96974637D01*
X145334637Y-96774759D01*
X145490000Y-96542241D01*
X145645363Y-96774759D01*
X145845241Y-96974637D01*
X146080273Y-97131680D01*
X146341426Y-97239853D01*
X146618665Y-97295000D01*
X146901335Y-97295000D01*
X147178574Y-97239853D01*
X147439727Y-97131680D01*
X147674759Y-96974637D01*
X147874637Y-96774759D01*
X148030000Y-96542241D01*
X148185363Y-96774759D01*
X148385241Y-96974637D01*
X148620273Y-97131680D01*
X148881426Y-97239853D01*
X149158665Y-97295000D01*
X149441335Y-97295000D01*
X149718574Y-97239853D01*
X149979727Y-97131680D01*
X150214759Y-96974637D01*
X150414637Y-96774759D01*
X150570000Y-96542241D01*
X150725363Y-96774759D01*
X150925241Y-96974637D01*
X151160273Y-97131680D01*
X151421426Y-97239853D01*
X151698665Y-97295000D01*
X151981335Y-97295000D01*
X152258574Y-97239853D01*
X152519727Y-97131680D01*
X152754759Y-96974637D01*
X152954637Y-96774759D01*
X153110000Y-96542241D01*
X153265363Y-96774759D01*
X153465241Y-96974637D01*
X153700273Y-97131680D01*
X153961426Y-97239853D01*
X154238665Y-97295000D01*
X154521335Y-97295000D01*
X154798574Y-97239853D01*
X155059727Y-97131680D01*
X155294759Y-96974637D01*
X155494637Y-96774759D01*
X155650000Y-96542241D01*
X155805363Y-96774759D01*
X156005241Y-96974637D01*
X156240273Y-97131680D01*
X156501426Y-97239853D01*
X156778665Y-97295000D01*
X157061335Y-97295000D01*
X157338574Y-97239853D01*
X157599727Y-97131680D01*
X157834759Y-96974637D01*
X158034637Y-96774759D01*
X158190000Y-96542241D01*
X158345363Y-96774759D01*
X158545241Y-96974637D01*
X158780273Y-97131680D01*
X159041426Y-97239853D01*
X159318665Y-97295000D01*
X159601335Y-97295000D01*
X159878574Y-97239853D01*
X160139727Y-97131680D01*
X160374759Y-96974637D01*
X160574637Y-96774759D01*
X160730000Y-96542241D01*
X160885363Y-96774759D01*
G37*
%TD.AperFunction*%
D16*
X162940001Y-110010605D02*
X162914759Y-109985363D01*
X162682241Y-109830000D01*
X162914759Y-109674637D01*
X162940001Y-109649395D01*
X162940001Y-110010605D01*
%TA.AperFunction,NonConductor*%
D17*
G36*
X162940001Y-110010605D02*
G01*
X162914759Y-109985363D01*
X162682241Y-109830000D01*
X162914759Y-109674637D01*
X162940001Y-109649395D01*
X162940001Y-110010605D01*
G37*
%TD.AperFunction*%
D16*
X162940001Y-107470605D02*
X162914759Y-107445363D01*
X162682241Y-107290000D01*
X162914759Y-107134637D01*
X162940001Y-107109395D01*
X162940001Y-107470605D01*
%TA.AperFunction,NonConductor*%
D17*
G36*
X162940001Y-107470605D02*
G01*
X162914759Y-107445363D01*
X162682241Y-107290000D01*
X162914759Y-107134637D01*
X162940001Y-107109395D01*
X162940001Y-107470605D01*
G37*
%TD.AperFunction*%
D16*
X162940001Y-104930605D02*
X162914759Y-104905363D01*
X162682241Y-104750000D01*
X162914759Y-104594637D01*
X162940001Y-104569395D01*
X162940001Y-104930605D01*
%TA.AperFunction,NonConductor*%
D17*
G36*
X162940001Y-104930605D02*
G01*
X162914759Y-104905363D01*
X162682241Y-104750000D01*
X162914759Y-104594637D01*
X162940001Y-104569395D01*
X162940001Y-104930605D01*
G37*
%TD.AperFunction*%
D16*
X162940001Y-102390605D02*
X162914759Y-102365363D01*
X162682241Y-102210000D01*
X162914759Y-102054637D01*
X162940001Y-102029395D01*
X162940001Y-102390605D01*
%TA.AperFunction,NonConductor*%
D17*
G36*
X162940001Y-102390605D02*
G01*
X162914759Y-102365363D01*
X162682241Y-102210000D01*
X162914759Y-102054637D01*
X162940001Y-102029395D01*
X162940001Y-102390605D01*
G37*
%TD.AperFunction*%
D16*
X162940001Y-99850605D02*
X162914759Y-99825363D01*
X162682241Y-99670000D01*
X162914759Y-99514637D01*
X162940001Y-99489395D01*
X162940001Y-99850605D01*
%TA.AperFunction,NonConductor*%
D17*
G36*
X162940001Y-99850605D02*
G01*
X162914759Y-99825363D01*
X162682241Y-99670000D01*
X162914759Y-99514637D01*
X162940001Y-99489395D01*
X162940001Y-99850605D01*
G37*
%TD.AperFunction*%
D16*
X162940001Y-97310605D02*
X162914759Y-97285363D01*
X162682241Y-97130000D01*
X162914759Y-96974637D01*
X162940001Y-96949395D01*
X162940001Y-97310605D01*
%TA.AperFunction,NonConductor*%
D17*
G36*
X162940001Y-97310605D02*
G01*
X162914759Y-97285363D01*
X162682241Y-97130000D01*
X162914759Y-96974637D01*
X162940001Y-96949395D01*
X162940001Y-97310605D01*
G37*
%TD.AperFunction*%
D16*
X154603783Y-76241459D02*
X154467153Y-76571313D01*
X154397500Y-76921484D01*
X154397500Y-77278516D01*
X154467153Y-77628687D01*
X154603783Y-77958541D01*
X154802139Y-78255401D01*
X155054599Y-78507861D01*
X155351459Y-78706217D01*
X155681313Y-78842847D01*
X156031484Y-78912500D01*
X156388516Y-78912500D01*
X156738687Y-78842847D01*
X157068541Y-78706217D01*
X157365401Y-78507861D01*
X157617861Y-78255401D01*
X157816217Y-77958541D01*
X157952847Y-77628687D01*
X158022500Y-77278516D01*
X158022500Y-76921484D01*
X157952847Y-76571313D01*
X157816217Y-76241459D01*
X157628152Y-75960000D01*
X162940000Y-75960000D01*
X162940001Y-94770605D01*
X162914759Y-94745363D01*
X162679727Y-94588320D01*
X162418574Y-94480147D01*
X162141335Y-94425000D01*
X161858665Y-94425000D01*
X161581426Y-94480147D01*
X161320273Y-94588320D01*
X161085241Y-94745363D01*
X160885363Y-94945241D01*
X160730000Y-95177759D01*
X160574637Y-94945241D01*
X160374759Y-94745363D01*
X160139727Y-94588320D01*
X159878574Y-94480147D01*
X159601335Y-94425000D01*
X159318665Y-94425000D01*
X159041426Y-94480147D01*
X158780273Y-94588320D01*
X158545241Y-94745363D01*
X158345363Y-94945241D01*
X158190000Y-95177759D01*
X158034637Y-94945241D01*
X157834759Y-94745363D01*
X157599727Y-94588320D01*
X157338574Y-94480147D01*
X157061335Y-94425000D01*
X156781773Y-94425000D01*
X157068541Y-94306217D01*
X157365401Y-94107861D01*
X157617861Y-93855401D01*
X157816217Y-93558541D01*
X157952847Y-93228687D01*
X158022500Y-92878516D01*
X158022500Y-92521484D01*
X157952847Y-92171313D01*
X157816217Y-91841459D01*
X157617861Y-91544599D01*
X157365401Y-91292139D01*
X157068541Y-91093783D01*
X156738687Y-90957153D01*
X156388516Y-90887500D01*
X156031484Y-90887500D01*
X155681313Y-90957153D01*
X155351459Y-91093783D01*
X155054599Y-91292139D01*
X154802139Y-91544599D01*
X154603783Y-91841459D01*
X154467153Y-92171313D01*
X154397500Y-92521484D01*
X154397500Y-92878516D01*
X154467153Y-93228687D01*
X154603783Y-93558541D01*
X154802139Y-93855401D01*
X155054599Y-94107861D01*
X155351459Y-94306217D01*
X155681313Y-94442847D01*
X156031484Y-94512500D01*
X156388516Y-94512500D01*
X156455472Y-94499182D01*
X156240273Y-94588320D01*
X156005241Y-94745363D01*
X155805363Y-94945241D01*
X155650000Y-95177759D01*
X155494637Y-94945241D01*
X155294759Y-94745363D01*
X155059727Y-94588320D01*
X154798574Y-94480147D01*
X154521335Y-94425000D01*
X154238665Y-94425000D01*
X153961426Y-94480147D01*
X153700273Y-94588320D01*
X153465241Y-94745363D01*
X153265363Y-94945241D01*
X153110000Y-95177759D01*
X152954637Y-94945241D01*
X152754759Y-94745363D01*
X152519727Y-94588320D01*
X152258574Y-94480147D01*
X151981335Y-94425000D01*
X151698665Y-94425000D01*
X151421426Y-94480147D01*
X151160273Y-94588320D01*
X150925241Y-94745363D01*
X150725363Y-94945241D01*
X150570000Y-95177759D01*
X150414637Y-94945241D01*
X150214759Y-94745363D01*
X149979727Y-94588320D01*
X149718574Y-94480147D01*
X149441335Y-94425000D01*
X149158665Y-94425000D01*
X148881426Y-94480147D01*
X148620273Y-94588320D01*
X148385241Y-94745363D01*
X148185363Y-94945241D01*
X148030000Y-95177759D01*
X147874637Y-94945241D01*
X147674759Y-94745363D01*
X147439727Y-94588320D01*
X147178574Y-94480147D01*
X146901335Y-94425000D01*
X146618665Y-94425000D01*
X146341426Y-94480147D01*
X146080273Y-94588320D01*
X145845241Y-94745363D01*
X145645363Y-94945241D01*
X145490000Y-95177759D01*
X145334637Y-94945241D01*
X145134759Y-94745363D01*
X144899727Y-94588320D01*
X144638574Y-94480147D01*
X144361335Y-94425000D01*
X144078665Y-94425000D01*
X143801426Y-94480147D01*
X143540273Y-94588320D01*
X143305241Y-94745363D01*
X143105363Y-94945241D01*
X142950000Y-95177759D01*
X142794637Y-94945241D01*
X142594759Y-94745363D01*
X142359727Y-94588320D01*
X142098574Y-94480147D01*
X141821335Y-94425000D01*
X141538665Y-94425000D01*
X141261426Y-94480147D01*
X141000273Y-94588320D01*
X140765241Y-94745363D01*
X140565363Y-94945241D01*
X140410000Y-95177759D01*
X140254637Y-94945241D01*
X140054759Y-94745363D01*
X139819727Y-94588320D01*
X139558574Y-94480147D01*
X139281335Y-94425000D01*
X138998665Y-94425000D01*
X138721426Y-94480147D01*
X138460273Y-94588320D01*
X138225241Y-94745363D01*
X138025363Y-94945241D01*
X137870000Y-95177759D01*
X137714637Y-94945241D01*
X137514759Y-94745363D01*
X137279727Y-94588320D01*
X137018574Y-94480147D01*
X136741335Y-94425000D01*
X136458665Y-94425000D01*
X136181426Y-94480147D01*
X135920273Y-94588320D01*
X135685241Y-94745363D01*
X135485363Y-94945241D01*
X135330000Y-95177759D01*
X135174637Y-94945241D01*
X134974759Y-94745363D01*
X134739727Y-94588320D01*
X134478574Y-94480147D01*
X134201335Y-94425000D01*
X133918665Y-94425000D01*
X133641426Y-94480147D01*
X133380273Y-94588320D01*
X133145241Y-94745363D01*
X132945363Y-94945241D01*
X132790000Y-95177759D01*
X132634637Y-94945241D01*
X132434759Y-94745363D01*
X132199727Y-94588320D01*
X131938574Y-94480147D01*
X131661335Y-94425000D01*
X131378665Y-94425000D01*
X131101426Y-94480147D01*
X130840273Y-94588320D01*
X130605241Y-94745363D01*
X130405363Y-94945241D01*
X130250000Y-95177759D01*
X130094637Y-94945241D01*
X129894759Y-94745363D01*
X129659727Y-94588320D01*
X129398574Y-94480147D01*
X129121335Y-94425000D01*
X128838665Y-94425000D01*
X128561426Y-94480147D01*
X128300273Y-94588320D01*
X128065241Y-94745363D01*
X128060000Y-94750604D01*
X128060000Y-90392409D01*
X150440000Y-90392409D01*
X150440000Y-90837591D01*
X150526851Y-91274218D01*
X150697214Y-91685511D01*
X150944544Y-92055666D01*
X151259334Y-92370456D01*
X151629489Y-92617786D01*
X152040782Y-92788149D01*
X152477409Y-92875000D01*
X152922591Y-92875000D01*
X153359218Y-92788149D01*
X153770511Y-92617786D01*
X154140666Y-92370456D01*
X154455456Y-92055666D01*
X154702786Y-91685511D01*
X154873149Y-91274218D01*
X154960000Y-90837591D01*
X154960000Y-90392409D01*
X154873149Y-89955782D01*
X154702786Y-89544489D01*
X154455456Y-89174334D01*
X154140666Y-88859544D01*
X153770511Y-88612214D01*
X153359218Y-88441851D01*
X152922591Y-88355000D01*
X152477409Y-88355000D01*
X152040782Y-88441851D01*
X151629489Y-88612214D01*
X151259334Y-88859544D01*
X150944544Y-89174334D01*
X150697214Y-89544489D01*
X150526851Y-89955782D01*
X150440000Y-90392409D01*
X128060000Y-90392409D01*
X128060000Y-80782136D01*
X128131862Y-80889685D01*
X128610315Y-81368138D01*
X129172918Y-81744057D01*
X129798048Y-82002994D01*
X130461682Y-82135000D01*
X131138318Y-82135000D01*
X131801952Y-82002994D01*
X132427082Y-81744057D01*
X132543902Y-81666000D01*
X144332928Y-81666000D01*
X144332928Y-83064000D01*
X144345188Y-83188482D01*
X144381498Y-83308180D01*
X144440463Y-83418494D01*
X144519815Y-83515185D01*
X144606145Y-83586034D01*
X144487824Y-83763114D01*
X144387265Y-84005886D01*
X144336000Y-84263612D01*
X144336000Y-84526388D01*
X144387265Y-84784114D01*
X144487824Y-85026886D01*
X144633814Y-85245376D01*
X144798438Y-85410000D01*
X144633814Y-85574624D01*
X144487824Y-85793114D01*
X144387265Y-86035886D01*
X144336000Y-86293612D01*
X144336000Y-86556388D01*
X144387265Y-86814114D01*
X144487824Y-87056886D01*
X144633814Y-87275376D01*
X144798438Y-87440000D01*
X144633814Y-87604624D01*
X144487824Y-87823114D01*
X144387265Y-88065886D01*
X144336000Y-88323612D01*
X144336000Y-88586388D01*
X144387265Y-88844114D01*
X144487824Y-89086886D01*
X144633814Y-89305376D01*
X144819624Y-89491186D01*
X145038114Y-89637176D01*
X145280886Y-89737735D01*
X145538612Y-89789000D01*
X145801388Y-89789000D01*
X146059114Y-89737735D01*
X146301886Y-89637176D01*
X146520376Y-89491186D01*
X146706186Y-89305376D01*
X146852176Y-89086886D01*
X146952735Y-88844114D01*
X147004000Y-88586388D01*
X147004000Y-88574336D01*
X147068114Y-88617176D01*
X147310886Y-88717735D01*
X147568612Y-88769000D01*
X147831388Y-88769000D01*
X148089114Y-88717735D01*
X148331886Y-88617176D01*
X148550376Y-88471186D01*
X148736186Y-88285376D01*
X148882176Y-88066886D01*
X148982735Y-87824114D01*
X149034000Y-87566388D01*
X149034000Y-87303612D01*
X148982735Y-87045886D01*
X148882176Y-86803114D01*
X148736186Y-86584624D01*
X148571562Y-86420000D01*
X148736186Y-86255376D01*
X148882176Y-86036886D01*
X148982735Y-85794114D01*
X149034000Y-85536388D01*
X149034000Y-85273612D01*
X148982735Y-85015886D01*
X148882176Y-84773114D01*
X148736186Y-84554624D01*
X148571562Y-84390000D01*
X148736186Y-84225376D01*
X148882176Y-84006886D01*
X148982735Y-83764114D01*
X149034000Y-83506388D01*
X149034000Y-83243612D01*
X148982735Y-82985886D01*
X148882176Y-82743114D01*
X148736186Y-82524624D01*
X148571562Y-82360000D01*
X148736186Y-82195376D01*
X148882176Y-81976886D01*
X148982735Y-81734114D01*
X149034000Y-81476388D01*
X149034000Y-81213612D01*
X148982735Y-80955886D01*
X148882176Y-80713114D01*
X148736186Y-80494624D01*
X148550376Y-80308814D01*
X148331886Y-80162824D01*
X148089114Y-80062265D01*
X147831388Y-80011000D01*
X147568612Y-80011000D01*
X147310886Y-80062265D01*
X147068114Y-80162824D01*
X146849624Y-80308814D01*
X146663814Y-80494624D01*
X146517824Y-80713114D01*
X146417265Y-80955886D01*
X146402283Y-81031206D01*
X146369000Y-81027928D01*
X144971000Y-81027928D01*
X144846518Y-81040188D01*
X144726820Y-81076498D01*
X144616506Y-81135463D01*
X144519815Y-81214815D01*
X144440463Y-81311506D01*
X144381498Y-81421820D01*
X144345188Y-81541518D01*
X144332928Y-81666000D01*
X132543902Y-81666000D01*
X132989685Y-81368138D01*
X133468138Y-80889685D01*
X133844057Y-80327082D01*
X134102994Y-79701952D01*
X134235000Y-79038318D01*
X134235000Y-78962409D01*
X150440000Y-78962409D01*
X150440000Y-79407591D01*
X150526851Y-79844218D01*
X150697214Y-80255511D01*
X150944544Y-80625666D01*
X151259334Y-80940456D01*
X151629489Y-81187786D01*
X152040782Y-81358149D01*
X152477409Y-81445000D01*
X152922591Y-81445000D01*
X153359218Y-81358149D01*
X153770511Y-81187786D01*
X154140666Y-80940456D01*
X154455456Y-80625666D01*
X154702786Y-80255511D01*
X154873149Y-79844218D01*
X154960000Y-79407591D01*
X154960000Y-78962409D01*
X154873149Y-78525782D01*
X154702786Y-78114489D01*
X154455456Y-77744334D01*
X154140666Y-77429544D01*
X153770511Y-77182214D01*
X153359218Y-77011851D01*
X152922591Y-76925000D01*
X152477409Y-76925000D01*
X152040782Y-77011851D01*
X151629489Y-77182214D01*
X151259334Y-77429544D01*
X150944544Y-77744334D01*
X150697214Y-78114489D01*
X150526851Y-78525782D01*
X150440000Y-78962409D01*
X134235000Y-78962409D01*
X134235000Y-78361682D01*
X134102994Y-77698048D01*
X133844057Y-77072918D01*
X133468138Y-76510315D01*
X132989685Y-76031862D01*
X132882136Y-75960000D01*
X154791848Y-75960000D01*
X154603783Y-76241459D01*
%TA.AperFunction,NonConductor*%
D17*
G36*
X154603783Y-76241459D02*
G01*
X154467153Y-76571313D01*
X154397500Y-76921484D01*
X154397500Y-77278516D01*
X154467153Y-77628687D01*
X154603783Y-77958541D01*
X154802139Y-78255401D01*
X155054599Y-78507861D01*
X155351459Y-78706217D01*
X155681313Y-78842847D01*
X156031484Y-78912500D01*
X156388516Y-78912500D01*
X156738687Y-78842847D01*
X157068541Y-78706217D01*
X157365401Y-78507861D01*
X157617861Y-78255401D01*
X157816217Y-77958541D01*
X157952847Y-77628687D01*
X158022500Y-77278516D01*
X158022500Y-76921484D01*
X157952847Y-76571313D01*
X157816217Y-76241459D01*
X157628152Y-75960000D01*
X162940000Y-75960000D01*
X162940001Y-94770605D01*
X162914759Y-94745363D01*
X162679727Y-94588320D01*
X162418574Y-94480147D01*
X162141335Y-94425000D01*
X161858665Y-94425000D01*
X161581426Y-94480147D01*
X161320273Y-94588320D01*
X161085241Y-94745363D01*
X160885363Y-94945241D01*
X160730000Y-95177759D01*
X160574637Y-94945241D01*
X160374759Y-94745363D01*
X160139727Y-94588320D01*
X159878574Y-94480147D01*
X159601335Y-94425000D01*
X159318665Y-94425000D01*
X159041426Y-94480147D01*
X158780273Y-94588320D01*
X158545241Y-94745363D01*
X158345363Y-94945241D01*
X158190000Y-95177759D01*
X158034637Y-94945241D01*
X157834759Y-94745363D01*
X157599727Y-94588320D01*
X157338574Y-94480147D01*
X157061335Y-94425000D01*
X156781773Y-94425000D01*
X157068541Y-94306217D01*
X157365401Y-94107861D01*
X157617861Y-93855401D01*
X157816217Y-93558541D01*
X157952847Y-93228687D01*
X158022500Y-92878516D01*
X158022500Y-92521484D01*
X157952847Y-92171313D01*
X157816217Y-91841459D01*
X157617861Y-91544599D01*
X157365401Y-91292139D01*
X157068541Y-91093783D01*
X156738687Y-90957153D01*
X156388516Y-90887500D01*
X156031484Y-90887500D01*
X155681313Y-90957153D01*
X155351459Y-91093783D01*
X155054599Y-91292139D01*
X154802139Y-91544599D01*
X154603783Y-91841459D01*
X154467153Y-92171313D01*
X154397500Y-92521484D01*
X154397500Y-92878516D01*
X154467153Y-93228687D01*
X154603783Y-93558541D01*
X154802139Y-93855401D01*
X155054599Y-94107861D01*
X155351459Y-94306217D01*
X155681313Y-94442847D01*
X156031484Y-94512500D01*
X156388516Y-94512500D01*
X156455472Y-94499182D01*
X156240273Y-94588320D01*
X156005241Y-94745363D01*
X155805363Y-94945241D01*
X155650000Y-95177759D01*
X155494637Y-94945241D01*
X155294759Y-94745363D01*
X155059727Y-94588320D01*
X154798574Y-94480147D01*
X154521335Y-94425000D01*
X154238665Y-94425000D01*
X153961426Y-94480147D01*
X153700273Y-94588320D01*
X153465241Y-94745363D01*
X153265363Y-94945241D01*
X153110000Y-95177759D01*
X152954637Y-94945241D01*
X152754759Y-94745363D01*
X152519727Y-94588320D01*
X152258574Y-94480147D01*
X151981335Y-94425000D01*
X151698665Y-94425000D01*
X151421426Y-94480147D01*
X151160273Y-94588320D01*
X150925241Y-94745363D01*
X150725363Y-94945241D01*
X150570000Y-95177759D01*
X150414637Y-94945241D01*
X150214759Y-94745363D01*
X149979727Y-94588320D01*
X149718574Y-94480147D01*
X149441335Y-94425000D01*
X149158665Y-94425000D01*
X148881426Y-94480147D01*
X148620273Y-94588320D01*
X148385241Y-94745363D01*
X148185363Y-94945241D01*
X148030000Y-95177759D01*
X147874637Y-94945241D01*
X147674759Y-94745363D01*
X147439727Y-94588320D01*
X147178574Y-94480147D01*
X146901335Y-94425000D01*
X146618665Y-94425000D01*
X146341426Y-94480147D01*
X146080273Y-94588320D01*
X145845241Y-94745363D01*
X145645363Y-94945241D01*
X145490000Y-95177759D01*
X145334637Y-94945241D01*
X145134759Y-94745363D01*
X144899727Y-94588320D01*
X144638574Y-94480147D01*
X144361335Y-94425000D01*
X144078665Y-94425000D01*
X143801426Y-94480147D01*
X143540273Y-94588320D01*
X143305241Y-94745363D01*
X143105363Y-94945241D01*
X142950000Y-95177759D01*
X142794637Y-94945241D01*
X142594759Y-94745363D01*
X142359727Y-94588320D01*
X142098574Y-94480147D01*
X141821335Y-94425000D01*
X141538665Y-94425000D01*
X141261426Y-94480147D01*
X141000273Y-94588320D01*
X140765241Y-94745363D01*
X140565363Y-94945241D01*
X140410000Y-95177759D01*
X140254637Y-94945241D01*
X140054759Y-94745363D01*
X139819727Y-94588320D01*
X139558574Y-94480147D01*
X139281335Y-94425000D01*
X138998665Y-94425000D01*
X138721426Y-94480147D01*
X138460273Y-94588320D01*
X138225241Y-94745363D01*
X138025363Y-94945241D01*
X137870000Y-95177759D01*
X137714637Y-94945241D01*
X137514759Y-94745363D01*
X137279727Y-94588320D01*
X137018574Y-94480147D01*
X136741335Y-94425000D01*
X136458665Y-94425000D01*
X136181426Y-94480147D01*
X135920273Y-94588320D01*
X135685241Y-94745363D01*
X135485363Y-94945241D01*
X135330000Y-95177759D01*
X135174637Y-94945241D01*
X134974759Y-94745363D01*
X134739727Y-94588320D01*
X134478574Y-94480147D01*
X134201335Y-94425000D01*
X133918665Y-94425000D01*
X133641426Y-94480147D01*
X133380273Y-94588320D01*
X133145241Y-94745363D01*
X132945363Y-94945241D01*
X132790000Y-95177759D01*
X132634637Y-94945241D01*
X132434759Y-94745363D01*
X132199727Y-94588320D01*
X131938574Y-94480147D01*
X131661335Y-94425000D01*
X131378665Y-94425000D01*
X131101426Y-94480147D01*
X130840273Y-94588320D01*
X130605241Y-94745363D01*
X130405363Y-94945241D01*
X130250000Y-95177759D01*
X130094637Y-94945241D01*
X129894759Y-94745363D01*
X129659727Y-94588320D01*
X129398574Y-94480147D01*
X129121335Y-94425000D01*
X128838665Y-94425000D01*
X128561426Y-94480147D01*
X128300273Y-94588320D01*
X128065241Y-94745363D01*
X128060000Y-94750604D01*
X128060000Y-90392409D01*
X150440000Y-90392409D01*
X150440000Y-90837591D01*
X150526851Y-91274218D01*
X150697214Y-91685511D01*
X150944544Y-92055666D01*
X151259334Y-92370456D01*
X151629489Y-92617786D01*
X152040782Y-92788149D01*
X152477409Y-92875000D01*
X152922591Y-92875000D01*
X153359218Y-92788149D01*
X153770511Y-92617786D01*
X154140666Y-92370456D01*
X154455456Y-92055666D01*
X154702786Y-91685511D01*
X154873149Y-91274218D01*
X154960000Y-90837591D01*
X154960000Y-90392409D01*
X154873149Y-89955782D01*
X154702786Y-89544489D01*
X154455456Y-89174334D01*
X154140666Y-88859544D01*
X153770511Y-88612214D01*
X153359218Y-88441851D01*
X152922591Y-88355000D01*
X152477409Y-88355000D01*
X152040782Y-88441851D01*
X151629489Y-88612214D01*
X151259334Y-88859544D01*
X150944544Y-89174334D01*
X150697214Y-89544489D01*
X150526851Y-89955782D01*
X150440000Y-90392409D01*
X128060000Y-90392409D01*
X128060000Y-80782136D01*
X128131862Y-80889685D01*
X128610315Y-81368138D01*
X129172918Y-81744057D01*
X129798048Y-82002994D01*
X130461682Y-82135000D01*
X131138318Y-82135000D01*
X131801952Y-82002994D01*
X132427082Y-81744057D01*
X132543902Y-81666000D01*
X144332928Y-81666000D01*
X144332928Y-83064000D01*
X144345188Y-83188482D01*
X144381498Y-83308180D01*
X144440463Y-83418494D01*
X144519815Y-83515185D01*
X144606145Y-83586034D01*
X144487824Y-83763114D01*
X144387265Y-84005886D01*
X144336000Y-84263612D01*
X144336000Y-84526388D01*
X144387265Y-84784114D01*
X144487824Y-85026886D01*
X144633814Y-85245376D01*
X144798438Y-85410000D01*
X144633814Y-85574624D01*
X144487824Y-85793114D01*
X144387265Y-86035886D01*
X144336000Y-86293612D01*
X144336000Y-86556388D01*
X144387265Y-86814114D01*
X144487824Y-87056886D01*
X144633814Y-87275376D01*
X144798438Y-87440000D01*
X144633814Y-87604624D01*
X144487824Y-87823114D01*
X144387265Y-88065886D01*
X144336000Y-88323612D01*
X144336000Y-88586388D01*
X144387265Y-88844114D01*
X144487824Y-89086886D01*
X144633814Y-89305376D01*
X144819624Y-89491186D01*
X145038114Y-89637176D01*
X145280886Y-89737735D01*
X145538612Y-89789000D01*
X145801388Y-89789000D01*
X146059114Y-89737735D01*
X146301886Y-89637176D01*
X146520376Y-89491186D01*
X146706186Y-89305376D01*
X146852176Y-89086886D01*
X146952735Y-88844114D01*
X147004000Y-88586388D01*
X147004000Y-88574336D01*
X147068114Y-88617176D01*
X147310886Y-88717735D01*
X147568612Y-88769000D01*
X147831388Y-88769000D01*
X148089114Y-88717735D01*
X148331886Y-88617176D01*
X148550376Y-88471186D01*
X148736186Y-88285376D01*
X148882176Y-88066886D01*
X148982735Y-87824114D01*
X149034000Y-87566388D01*
X149034000Y-87303612D01*
X148982735Y-87045886D01*
X148882176Y-86803114D01*
X148736186Y-86584624D01*
X148571562Y-86420000D01*
X148736186Y-86255376D01*
X148882176Y-86036886D01*
X148982735Y-85794114D01*
X149034000Y-85536388D01*
X149034000Y-85273612D01*
X148982735Y-85015886D01*
X148882176Y-84773114D01*
X148736186Y-84554624D01*
X148571562Y-84390000D01*
X148736186Y-84225376D01*
X148882176Y-84006886D01*
X148982735Y-83764114D01*
X149034000Y-83506388D01*
X149034000Y-83243612D01*
X148982735Y-82985886D01*
X148882176Y-82743114D01*
X148736186Y-82524624D01*
X148571562Y-82360000D01*
X148736186Y-82195376D01*
X148882176Y-81976886D01*
X148982735Y-81734114D01*
X149034000Y-81476388D01*
X149034000Y-81213612D01*
X148982735Y-80955886D01*
X148882176Y-80713114D01*
X148736186Y-80494624D01*
X148550376Y-80308814D01*
X148331886Y-80162824D01*
X148089114Y-80062265D01*
X147831388Y-80011000D01*
X147568612Y-80011000D01*
X147310886Y-80062265D01*
X147068114Y-80162824D01*
X146849624Y-80308814D01*
X146663814Y-80494624D01*
X146517824Y-80713114D01*
X146417265Y-80955886D01*
X146402283Y-81031206D01*
X146369000Y-81027928D01*
X144971000Y-81027928D01*
X144846518Y-81040188D01*
X144726820Y-81076498D01*
X144616506Y-81135463D01*
X144519815Y-81214815D01*
X144440463Y-81311506D01*
X144381498Y-81421820D01*
X144345188Y-81541518D01*
X144332928Y-81666000D01*
X132543902Y-81666000D01*
X132989685Y-81368138D01*
X133468138Y-80889685D01*
X133844057Y-80327082D01*
X134102994Y-79701952D01*
X134235000Y-79038318D01*
X134235000Y-78962409D01*
X150440000Y-78962409D01*
X150440000Y-79407591D01*
X150526851Y-79844218D01*
X150697214Y-80255511D01*
X150944544Y-80625666D01*
X151259334Y-80940456D01*
X151629489Y-81187786D01*
X152040782Y-81358149D01*
X152477409Y-81445000D01*
X152922591Y-81445000D01*
X153359218Y-81358149D01*
X153770511Y-81187786D01*
X154140666Y-80940456D01*
X154455456Y-80625666D01*
X154702786Y-80255511D01*
X154873149Y-79844218D01*
X154960000Y-79407591D01*
X154960000Y-78962409D01*
X154873149Y-78525782D01*
X154702786Y-78114489D01*
X154455456Y-77744334D01*
X154140666Y-77429544D01*
X153770511Y-77182214D01*
X153359218Y-77011851D01*
X152922591Y-76925000D01*
X152477409Y-76925000D01*
X152040782Y-77011851D01*
X151629489Y-77182214D01*
X151259334Y-77429544D01*
X150944544Y-77744334D01*
X150697214Y-78114489D01*
X150526851Y-78525782D01*
X150440000Y-78962409D01*
X134235000Y-78962409D01*
X134235000Y-78361682D01*
X134102994Y-77698048D01*
X133844057Y-77072918D01*
X133468138Y-76510315D01*
X132989685Y-76031862D01*
X132882136Y-75960000D01*
X154791848Y-75960000D01*
X154603783Y-76241459D01*
G37*
%TD.AperFunction*%
D16*
X128610315Y-76031862D02*
X128131862Y-76510315D01*
X128060000Y-76617864D01*
X128060000Y-75960000D01*
X128717864Y-75960000D01*
X128610315Y-76031862D01*
%TA.AperFunction,NonConductor*%
D17*
G36*
X128610315Y-76031862D02*
G01*
X128131862Y-76510315D01*
X128060000Y-76617864D01*
X128060000Y-75960000D01*
X128717864Y-75960000D01*
X128610315Y-76031862D01*
G37*
%TD.AperFunction*%
M02*
